<svg xmlns="http://www.w3.org/2000/svg" xmlns:xlink="http://www.w3.org/1999/xlink" version="1.1" width="1000" height="1000" viewBox="0 0 1000 1000" xml:space="preserve">
<desc>Created with Fabric.js 3.5.0</desc>
<defs>
</defs>
<rect x="0" y="0" width="100%" height="100%" fill="rgba(255,255,255,0)"/>
<g transform="matrix(2.2727 0 0 2.2727 497.3958 496.1395)" id="path0">
<path style="stroke: none; stroke-width: 1; stroke-dasharray: none; stroke-linecap: butt; stroke-dashoffset: 0; stroke-linejoin: miter; stroke-miterlimit: 4; is-custom-font: none; font-file-url: none; fill: rgb(62,85,160); fill-rule: evenodd; opacity: 1;" transform=" translate(-198.8565, -198.3022)" d="M 85.235 130.006 C 66.348 132.655 51.919 144.162 48.403 159.381 C 47.554 163.055 47.428 173.786 47.539 232.648 L 47.6 264.695 L 48.971 264.918 C 49.725 265.04 50.711 265.044 51.161 264.926 L 51.98 264.712 L 52.09 212.256 L 52.2 159.8 L 53.282 157.1 C 65.995 125.378 121.528 124.872 134.247 156.363 C 135.992 160.681 136 160.959 136 213.847 L 136 264.785 L 136.9 264.997 C 137.395 265.114 138.385 265.162 139.099 265.105 L 140.398 265 L 140.391 214 C 140.383 164.952 140.353 162.862 139.603 159.4 C 135.3 139.539 110.989 126.395 85.235 130.006 M 233.4 129.831 C 225.256 130.919 214.248 134.793 210.47 137.901 C 210.003 138.286 208.979 139.05 208.194 139.6 C 202.824 143.365 197.661 150.724 195.514 157.672 L 194.609 160.6 L 194.496 212.571 C 194.405 254.287 194.483 264.605 194.891 264.861 C 195.171 265.036 196.075 265.155 196.9 265.124 L 198.4 265.069 L 198.4 214.634 C 198.4 159.4 198.357 160.498 200.747 155.4 C 212.72 129.867 254.656 124.849 274.657 146.556 C 280.148 152.516 282.207 157.337 282.704 165.4 L 283 170.2 L 285.1 170.321 L 287.2 170.442 L 287.2 166.647 C 287.2 149.522 273.643 135.021 253.621 130.731 C 249.957 129.946 236.891 129.364 233.4 129.831 M 334.6 129.979 C 317.958 131.897 302.851 143.213 298.529 157 L 297.4 160.6 L 297.4 198.4 L 297.4 236.2 L 298.707 240.07 C 311.293 277.346 379.632 275.774 388.719 238 C 389.169 236.13 389.652 232.845 389.793 230.7 L 390.048 226.8 L 387.824 226.8 L 385.6 226.8 L 385.6 230.336 C 385.6 252.927 357.648 268.979 330.4 262.036 C 316.488 258.491 306.992 250.39 302.252 238.024 C 301.245 235.396 300.672 167.087 301.611 161.6 C 303.205 152.283 310.189 143.611 320.278 138.421 C 348.707 123.796 385.6 139.723 385.6 166.62 L 385.6 170.4 L 387.8 170.4 L 390 170.4 L 390 169.042 C 390 142.943 366.415 126.313 334.6 129.979 M 156.099 198.241 L 156.2 264.924 L 157.839 265.077 C 160.599 265.334 160.412 270.437 160.301 197.958 L 160.2 131.8 L 158.099 131.679 L 155.998 131.558 L 156.099 198.241 M 165.485 131.848 C 165.328 132.005 165.2 161.975 165.2 198.449 L 165.2 264.764 L 166.56 265.019 C 169.721 265.612 169.4 273.134 169.4 198.395 L 169.4 131.8 L 167.585 131.682 C 166.587 131.616 165.642 131.691 165.485 131.848 M 174.8 198.192 L 174.8 264.785 L 175.829 265.043 C 176.396 265.185 177.296 265.103 177.829 264.859 L 178.8 264.417 L 178.8 198.641 C 178.8 162.465 178.691 132.581 178.557 132.233 C 178.387 131.789 177.791 131.6 176.557 131.6 L 174.8 131.6 L 174.8 198.192 M 89.505 137.217 C 73.609 138.597 59.802 149.181 57.379 161.845 C 56.893 164.385 56.8 172.891 56.8 214.817 L 56.8 264.764 L 58.197 265.026 C 58.966 265.17 60.042 265.176 60.589 265.039 L 61.583 264.789 L 61.691 212.695 C 61.811 155.372 61.607 160.226 64.098 155.4 C 70.097 143.781 86.751 137.922 103.8 141.431 C 114.204 143.572 122.121 150.121 125.753 159.591 C 126.596 161.79 126.601 162.044 126.8 213.4 L 127 265 L 128.702 265.022 C 129.638 265.035 130.588 264.931 130.812 264.792 C 131.087 264.622 131.185 247.848 131.11 213.37 L 131 162.2 L 130.066 159.6 C 125.773 147.651 113.623 138.63 100.2 137.425 C 94.459 136.91 93.31 136.887 89.505 137.217 M 235.86 137.237 C 230.158 137.707 220.581 141.064 216.833 143.906 C 209.035 149.819 205.756 154.589 204.038 162.519 C 203.213 166.326 203.2 167.145 203.2 215.403 L 203.2 264.42 L 204.277 264.829 C 204.87 265.055 205.905 265.185 206.577 265.12 L 207.8 265 L 207.902 232.7 L 208.005 200.4 L 232.402 200.4 L 256.8 200.4 L 256.8 198.603 L 256.8 196.806 L 232.5 196.703 L 208.2 196.6 L 208.2 179.4 C 208.2 160.719 208.146 161.247 210.625 155.752 C 218.538 138.213 252.576 134.9 266.833 150.28 C 271.032 154.81 273.02 159.606 273.449 166.241 L 273.718 170.4 L 275.659 170.4 L 277.6 170.4 L 277.593 166.9 C 277.567 154.01 269.246 143.98 254.63 139.225 C 250.49 137.878 241.61 136.443 240 136.86 C 239.89 136.889 238.027 137.058 235.86 137.237 M 338.646 137.251 C 324.519 138.523 312.773 146.581 307.669 158.502 L 306.6 161 L 306.497 197.416 C 306.405 229.839 306.464 234.072 307.034 236.016 C 313.42 257.781 345.265 266.751 366.956 252.895 C 369.567 251.227 376.4 244.774 376.4 243.977 C 376.4 243.789 376.93 242.736 377.578 241.638 C 379.495 238.386 380.4 234.833 380.4 230.558 L 380.4 226.8 L 378.2 226.8 L 376 226.8 L 375.993 229.9 C 375.924 260.786 321.743 266.704 311.728 236.919 C 311.186 235.308 311.054 232.222 310.905 217.7 L 310.728 200.4 L 335.164 200.4 C 359.567 200.4 359.6 200.399 359.6 199.576 C 359.6 198.124 360.28 199.117 360.529 200.933 C 360.908 203.701 362.32 207.027 364.038 209.201 C 365.567 211.134 366.618 211.832 366.145 210.6 C 366.018 210.27 366.12 210 366.372 210 C 366.624 210 366.088 208.908 365.181 207.572 C 357.125 195.71 366.748 180.425 380.81 182.747 C 384.069 183.285 385.325 183.841 388.3 186.06 C 390.203 187.479 391.148 187.713 389.9 186.456 C 389.499 186.052 389.539 186.005 390.1 186.219 C 392.501 187.133 388.684 183.715 385.761 182.334 C 374.918 177.21 363.343 183.211 360.558 195.4 C 360.14 197.228 359.766 198.214 359.686 197.7 L 359.544 196.8 L 335.139 196.8 L 310.734 196.8 L 310.911 179.5 C 311.03 167.891 311.246 161.612 311.566 160.411 C 318.85 133.144 370.034 134.03 375.573 161.52 C 375.808 162.686 376 165.161 376 167.02 L 376 170.4 L 378.2 170.4 L 380.4 170.4 L 380.4 167.073 C 380.4 151.912 366.808 138.91 349.4 137.416 C 343.621 136.921 342.503 136.903 338.646 137.251 M 87.8 145.078 C 75.867 147.833 68.723 153.731 66.816 162.4 C 66.566 163.534 66.416 182.808 66.41 214.457 L 66.4 264.713 L 67.4 264.964 C 67.95 265.102 68.847 265.103 69.393 264.966 L 70.385 264.717 L 70.493 213.258 L 70.6 161.8 L 72.112 158.726 C 78.782 145.167 107.404 144.002 115.009 156.98 C 117.529 161.279 117.366 157.575 117.499 213.583 C 117.581 247.956 117.755 264.648 118.032 264.82 C 118.258 264.96 119.109 265.034 119.922 264.984 L 121.4 264.895 L 121.4 213.347 L 121.4 161.8 L 119.839 158.6 C 115.569 149.849 106.066 144.748 94.216 144.846 C 91.127 144.872 88.24 144.976 87.8 145.078 M 231.8 145.794 C 223.421 148.019 217.908 152.18 214.73 158.679 L 213.4 161.4 L 213.279 177.1 L 213.157 192.8 L 234.979 192.8 L 256.8 192.8 L 256.8 191 L 256.8 189.2 L 237 189.2 L 217.2 189.2 L 217.2 176.558 C 217.2 162.553 217.448 160.589 219.659 157.121 C 223.114 151.7 229.016 148.737 237.4 148.213 C 254.314 147.156 263.512 153.418 264.287 166.519 L 264.518 170.439 L 266.359 170.319 L 268.2 170.2 L 268.319 167.483 C 268.999 151.906 250.394 140.857 231.8 145.794 M 337.4 145.059 C 327.67 147.081 321.15 151.442 317.678 158.246 C 315.897 161.737 315.57 165.215 315.689 179.4 L 315.8 192.6 L 337.7 192.703 L 359.6 192.807 L 359.6 191.003 L 359.6 189.2 L 339.771 189.2 L 319.941 189.2 L 320.083 175.5 C 320.264 158.058 321.016 155.873 328.372 151.423 C 335.589 147.056 350.574 146.884 358 151.082 C 363.468 154.173 367.583 161.318 367.17 167 C 366.935 170.224 367.043 170.4 369.259 170.4 L 371.318 170.4 L 371.097 166.7 C 370.444 155.756 363.382 148.199 351.2 145.408 C 348.787 144.855 339.51 144.62 337.4 145.059 M 22.501 180.433 C 16.434 183.034 12.419 188.284 11.434 194.9 L 11.151 196.8 L 9.199 196.8 C 5.968 196.8 6.125 198.266 9.378 198.474 L 11.341 198.6 L 11.859 200.891 C 12.89 205.446 16.138 210.319 17.342 209.115 C 17.911 208.546 17.881 208.385 17.007 207.369 C 15.418 205.52 14.012 202.603 13.735 200.579 L 13.474 198.672 L 17.037 198.958 C 18.997 199.116 22.445 199.339 24.7 199.455 L 28.8 199.666 L 28.8 198.133 L 28.801 196.6 L 21 196.724 C 16.71 196.792 13.2 196.69 13.2 196.497 C 13.2 183.05 30.056 176.126 40.364 185.338 C 41.159 186.049 41.284 186.077 41.077 185.5 C 40.902 185.014 41.028 184.8 41.487 184.8 C 42.757 184.8 40 182.496 36.845 180.92 C 32.452 178.727 26.919 178.539 22.501 180.433 M 363.2 196.867 L 363.2 198.257 L 369.9 198.122 C 379.584 197.927 386.757 197.513 385.6 197.216 C 384.633 196.967 384.626 196.943 385.4 196.491 C 386.033 196.122 384.817 196.022 379.563 196.012 C 375.912 196.005 370.737 195.882 368.063 195.739 L 363.2 195.477 L 363.2 196.867 M 213.297 234.7 L 213.4 265 L 214.341 265.133 C 214.858 265.206 215.713 265.158 216.241 265.026 L 217.2 264.785 L 217.2 236.392 L 217.2 208 L 237 208 L 256.8 208 L 256.8 206.2 L 256.8 204.4 L 234.997 204.4 L 213.195 204.4 L 213.297 234.7 M 315.696 218.9 C 315.87 234.955 315.963 235.632 318.613 240 C 323.622 248.259 335.721 253.119 347.6 251.645 C 361.835 249.879 370.231 242.236 371.073 230.277 L 371.321 226.754 L 369.161 226.877 C 367.082 226.995 367.005 227.041 367.124 228.064 C 368.549 240.3 359.226 248.21 343.4 248.192 C 331.405 248.178 325.02 245.098 321.441 237.6 L 320.2 235 L 320.068 221.5 L 319.935 208 L 339.768 208 L 359.6 208 L 359.6 206.2 L 359.6 204.4 L 337.569 204.4 L 315.539 204.4 L 315.696 218.9" stroke-linecap="round"/>
</g>
<g transform="matrix(2.2727 0 0 2.2727 500.4527 496.4159)" id="path2">
<path style="stroke: none; stroke-width: 1; stroke-dasharray: none; stroke-linecap: butt; stroke-dashoffset: 0; stroke-linejoin: miter; stroke-miterlimit: 4; is-custom-font: none; font-file-url: none; fill: rgb(150,165,202); fill-rule: evenodd; opacity: 1;" transform=" translate(-200.2016, -198.4238)" d="M 87.3 129.476 C 87.685 129.576 88.315 129.576 88.7 129.476 C 89.085 129.375 88.77 129.293 88 129.293 C 87.23 129.293 86.915 129.375 87.3 129.476 M 99.3 129.476 C 99.685 129.576 100.315 129.576 100.7 129.476 C 101.085 129.375 100.77 129.293 100 129.293 C 99.23 129.293 98.915 129.375 99.3 129.476 M 336.9 129.476 C 337.285 129.576 337.915 129.576 338.3 129.476 C 338.685 129.375 338.37 129.293 337.6 129.293 C 336.83 129.293 336.515 129.375 336.9 129.476 M 349.3 129.476 C 349.685 129.576 350.315 129.576 350.7 129.476 C 351.085 129.375 350.77 129.293 350 129.293 C 349.23 129.293 348.915 129.375 349.3 129.476 M 83.7 129.876 C 84.085 129.976 84.715 129.976 85.1 129.876 C 85.485 129.775 85.17 129.693 84.4 129.693 C 83.63 129.693 83.315 129.775 83.7 129.876 M 333.3 129.876 C 333.685 129.976 334.315 129.976 334.7 129.876 C 335.085 129.775 334.77 129.693 334 129.693 C 333.23 129.693 332.915 129.775 333.3 129.876 M 156.707 131.49 C 157.426 131.579 158.506 131.577 159.107 131.486 C 159.708 131.395 159.12 131.322 157.8 131.324 C 156.48 131.326 155.988 131.401 156.707 131.49 M 164.992 131.68 C 164.884 131.966 164.841 162.17 164.898 198.8 L 165.002 265.4 L 165.101 198.5 L 165.2 131.6 L 167.399 131.6 L 169.598 131.6 L 169.701 198.3 L 169.804 265 L 169.802 198.2 L 169.8 131.4 L 167.495 131.28 C 165.881 131.196 165.131 131.316 164.992 131.68 M 176.597 131.487 L 178.798 131.64 L 178.901 198.32 L 179.004 265 L 179.002 198.2 L 179 131.4 L 176.698 131.367 L 174.396 131.334 L 176.597 131.487 M 160.595 198.4 C 160.595 235.25 160.642 250.325 160.7 231.9 C 160.757 213.475 160.757 183.325 160.7 164.9 C 160.642 146.475 160.595 161.55 160.595 198.4 M 72.5 132.812 C 71.161 133.351 71.411 133.624 72.8 133.14 C 73.46 132.91 74 132.649 74 132.561 C 74 132.324 73.513 132.405 72.5 132.812 M 174.097 198.476 C 174.044 234.928 174.135 264.836 174.3 264.938 C 174.571 265.106 174.57 219.936 174.297 156.2 C 174.24 143 174.15 162.024 174.097 198.476 M 92.3 133.093 C 93.235 133.177 94.765 133.177 95.7 133.093 C 96.635 133.009 95.87 132.94 94 132.94 C 92.13 132.94 91.365 133.009 92.3 133.093 M 218 133.4 C 217.45 133.714 217.18 133.972 217.4 133.972 C 217.62 133.972 218.25 133.714 218.8 133.4 C 219.35 133.086 219.62 132.828 219.4 132.828 C 219.18 132.828 218.55 133.086 218 133.4 M 239.1 133.093 C 240.035 133.177 241.565 133.177 242.5 133.093 C 243.435 133.009 242.67 132.94 240.8 132.94 C 238.93 132.94 238.165 133.009 239.1 133.093 M 320.8 133.4 C 320.25 133.714 319.98 133.972 320.2 133.972 C 320.42 133.972 321.05 133.714 321.6 133.4 C 322.15 133.086 322.42 132.828 322.2 132.828 C 321.98 132.828 321.35 133.086 320.8 133.4 M 341.712 133.095 C 342.764 133.177 344.384 133.176 345.312 133.092 C 346.24 133.008 345.38 132.941 343.4 132.942 C 341.42 132.943 340.66 133.012 341.712 133.095 M 317.9 134.629 C 316.349 135.47 316.525 135.761 318.1 134.959 C 319.608 134.193 319.875 133.994 319.367 134.016 C 319.165 134.025 318.505 134.301 317.9 134.629 M 212.3 136.229 C 210.805 137.04 210.896 137.378 212.4 136.6 C 213.06 136.259 213.6 135.894 213.6 135.79 C 213.6 135.532 213.557 135.547 212.3 136.229 M 371.4 136.207 C 371.84 136.566 372.56 137.035 373 137.251 L 373.8 137.644 L 373 136.993 C 372.56 136.634 371.84 136.165 371.4 135.949 L 370.6 135.556 L 371.4 136.207 M 314.1 136.796 C 313.385 137.232 312.8 137.675 312.8 137.781 C 312.8 137.886 313.43 137.601 314.2 137.147 C 314.97 136.693 315.6 136.249 315.6 136.16 C 315.6 135.905 315.474 135.958 314.1 136.796 M 93.5 136.682 C 93.995 136.778 94.805 136.778 95.3 136.682 C 95.795 136.587 95.39 136.509 94.4 136.509 C 93.41 136.509 93.005 136.587 93.5 136.682 M 112.4 136.733 C 112.73 136.936 113.45 137.224 114 137.371 C 114.695 137.557 114.817 137.525 114.4 137.267 C 114.07 137.064 113.35 136.776 112.8 136.629 C 112.105 136.443 111.983 136.475 112.4 136.733 M 239.9 136.682 C 240.395 136.778 241.205 136.778 241.7 136.682 C 242.195 136.587 241.79 136.509 240.8 136.509 C 239.81 136.509 239.405 136.587 239.9 136.682 M 342.9 136.676 C 343.285 136.776 343.915 136.776 344.3 136.676 C 344.685 136.575 344.37 136.493 343.6 136.493 C 342.83 136.493 342.515 136.575 342.9 136.676 M 88.3 137.082 C 88.795 137.178 89.605 137.178 90.1 137.082 C 90.595 136.987 90.19 136.909 89.2 136.909 C 88.21 136.909 87.805 136.987 88.3 137.082 M 98.305 137.083 C 98.802 137.179 99.522 137.175 99.905 137.075 C 100.287 136.975 99.88 136.896 99 136.901 C 98.12 136.905 97.807 136.987 98.305 137.083 M 235.105 137.083 C 235.602 137.179 236.322 137.175 236.705 137.075 C 237.087 136.975 236.68 136.896 235.8 136.901 C 234.92 136.905 234.607 136.987 235.105 137.083 M 245.1 137.082 C 245.595 137.178 246.405 137.178 246.9 137.082 C 247.395 136.987 246.99 136.909 246 136.909 C 245.01 136.909 244.605 136.987 245.1 137.082 M 337.5 137.082 C 337.995 137.178 338.805 137.178 339.3 137.082 C 339.795 136.987 339.39 136.909 338.4 136.909 C 337.41 136.909 337.005 136.987 337.5 137.082 M 347.5 137.082 C 347.995 137.178 348.805 137.178 349.3 137.082 C 349.795 136.987 349.39 136.909 348.4 136.909 C 347.41 136.909 347.005 136.987 347.5 137.082 M 62.6 138.25 C 61.881 138.862 61.734 139.105 62.233 138.857 C 62.966 138.493 64.341 137.176 63.949 137.214 C 63.867 137.222 63.26 137.688 62.6 138.25 M 261.6 137.8 C 262.15 138.114 262.78 138.372 263 138.372 C 263.22 138.372 262.95 138.114 262.4 137.8 C 261.85 137.486 261.22 137.228 261 137.228 C 260.78 137.228 261.05 137.486 261.6 137.8 M 363.633 137.349 C 364.045 137.717 366.4 138.8 366.4 138.621 C 366.4 138.39 364.182 137.2 363.753 137.2 C 363.596 137.2 363.542 137.267 363.633 137.349 M 125.2 138.104 C 125.2 138.198 126.145 139.063 127.3 140.026 C 128.455 140.99 129.147 141.461 128.838 141.074 C 128.218 140.296 125.2 137.832 125.2 138.104 M 78.2 139.414 C 77.195 139.898 77.163 139.953 78 139.751 C 78.55 139.619 79.171 139.35 79.38 139.155 C 79.898 138.671 79.614 138.733 78.2 139.414 M 255.2 139.031 C 255.2 139.301 257.278 140.056 257.476 139.857 C 257.567 139.767 257.092 139.501 256.42 139.267 C 255.749 139.033 255.2 138.927 255.2 139.031 M 273.6 139.325 C 273.6 139.394 274.185 139.979 274.9 140.625 L 276.2 141.8 L 275.025 140.5 C 273.93 139.288 273.6 139.016 273.6 139.325 M 317.078 140.391 C 316.045 141.046 315.2 141.669 315.2 141.775 C 315.2 141.88 316.1 141.407 317.2 140.724 C 318.964 139.627 319.491 139.2 319.078 139.2 C 319.011 139.2 318.111 139.736 317.078 140.391 M 369 140.207 C 369.44 140.566 370.16 141.035 370.6 141.251 L 371.4 141.644 L 370.6 140.993 C 370.16 140.634 369.44 140.165 369 139.949 L 368.2 139.556 L 369 140.207 M 306.765 142.7 C 305.328 144.185 303.901 145.76 303.595 146.2 C 302.938 147.145 302.985 147.099 306.788 143.1 C 308.409 141.395 309.655 140 309.557 140 C 309.459 140 308.203 141.215 306.765 142.7 M 361.6 140.6 C 362.15 140.914 362.78 141.172 363 141.172 C 363.22 141.172 362.95 140.914 362.4 140.6 C 361.85 140.286 361.22 140.028 361 140.028 C 360.78 140.028 361.05 140.286 361.6 140.6 M 203.986 142.7 L 201.8 145 L 204.1 142.814 C 205.365 141.611 206.4 140.576 206.4 140.514 C 206.4 140.217 206.018 140.563 203.986 142.7 M 64.785 142.429 L 63.4 143.658 L 64.9 142.581 C 66.226 141.63 66.657 141.2 66.285 141.2 C 66.222 141.2 65.547 141.753 64.785 142.429 M 211.722 142.229 L 210.6 143.258 L 211.9 142.354 C 212.615 141.857 213.2 141.393 213.2 141.325 C 213.2 141.009 212.758 141.28 211.722 142.229 M 56.975 142.9 L 55.8 144.2 L 57.1 143.025 C 57.815 142.379 58.4 141.794 58.4 141.725 C 58.4 141.416 58.07 141.688 56.975 142.9 M 122 141.706 C 122 141.794 122.765 142.474 123.7 143.217 C 124.635 143.96 125.146 144.252 124.836 143.865 C 124.251 143.137 122 141.423 122 141.706 M 319.869 143.238 C 318.841 143.918 318 144.557 318 144.658 C 318 144.758 318.225 144.693 318.5 144.513 C 318.775 144.334 319.675 143.767 320.5 143.254 C 321.82 142.433 322.293 142 321.869 142 C 321.796 142 320.896 142.557 319.869 143.238 M 254.976 143.209 C 256.063 143.633 257.016 143.918 257.093 143.84 C 257.284 143.65 254.107 142.395 253.492 142.419 C 253.221 142.429 253.889 142.785 254.976 143.209 M 380.754 143.536 C 381.199 144.16 381.879 144.925 382.265 145.236 C 382.652 145.546 382.36 145.035 381.617 144.1 C 380.091 142.18 379.525 141.81 380.754 143.536 M 271.288 143.813 C 271.886 144.443 272.447 144.877 272.535 144.779 C 272.623 144.68 272.133 144.165 271.447 143.634 L 270.2 142.669 L 271.288 143.813 M 366.4 142.924 C 366.4 143.017 367.165 143.598 368.1 144.215 C 369.035 144.832 369.589 145.08 369.331 144.768 C 368.834 144.167 366.4 142.636 366.4 142.924 M 376 145.789 C 377.65 147.542 379.045 149.057 379.1 149.155 C 379.155 149.253 379.285 149.249 379.388 149.145 C 379.491 149.042 378.096 147.527 376.288 145.779 L 373 142.6 L 376 145.789 M 117.6 143.346 C 117.6 143.456 118.14 143.93 118.8 144.4 C 119.46 144.87 120 145.164 120 145.054 C 120 144.944 119.46 144.47 118.8 144 C 118.14 143.53 117.6 143.236 117.6 143.346 M 215.8 144.235 L 214.6 145.266 L 215.9 144.406 C 216.615 143.933 217.2 143.468 217.2 143.373 C 217.2 143.073 217.031 143.178 215.8 144.235 M 310.388 145.9 L 307.8 148.6 L 310.5 146.012 C 311.985 144.588 313.2 143.373 313.2 143.312 C 313.2 143.017 312.793 143.392 310.388 145.9 M 326.8 143.8 C 326.25 144.114 325.98 144.372 326.2 144.372 C 326.42 144.372 327.05 144.114 327.6 143.8 C 328.15 143.486 328.42 143.228 328.2 143.228 C 327.98 143.228 327.35 143.486 326.8 143.8 M 359.2 143.8 C 359.75 144.114 360.38 144.372 360.6 144.372 C 360.82 144.372 360.55 144.114 360 143.8 C 359.45 143.486 358.82 143.228 358.6 143.228 C 358.38 143.228 358.65 143.486 359.2 143.8 M 207.586 145.9 L 205.4 148.2 L 207.791 146 C 209.106 144.79 210.261 143.755 210.357 143.7 C 210.454 143.645 210.362 143.6 210.153 143.6 C 209.944 143.6 208.789 144.635 207.586 145.9 M 223.2 144.2 C 222.65 144.514 222.38 144.772 222.6 144.772 C 222.82 144.772 223.45 144.514 224 144.2 C 224.55 143.886 224.82 143.628 224.6 143.628 C 224.38 143.628 223.75 143.886 223.2 144.2 M 75.1 144.827 C 74.275 145.263 73.6 145.708 73.6 145.818 C 73.6 145.996 76.759 144.519 77.167 144.151 C 77.627 143.734 76.425 144.128 75.1 144.827 M 279.865 145.8 C 281.531 147.794 282.113 148.214 280.833 146.5 C 279.284 144.424 278.911 144 278.636 144 C 278.484 144 279.037 144.81 279.865 145.8 M 60.383 146.223 C 59.402 147.225 58.87 147.927 59.2 147.783 C 59.772 147.532 62.67 144.4 62.33 144.4 C 62.24 144.4 61.364 145.22 60.383 146.223 M 65.462 147.3 L 62.54 150.2 L 65.37 147.622 C 66.926 146.204 68.371 144.899 68.58 144.722 C 68.789 144.545 68.83 144.4 68.672 144.4 C 68.514 144.4 67.069 145.705 65.462 147.3 M 89.3 144.676 C 89.685 144.776 90.315 144.776 90.7 144.676 C 91.085 144.575 90.77 144.493 90 144.493 C 89.23 144.493 88.915 144.575 89.3 144.676 M 362.8 145.321 C 362.8 145.412 363.835 146.151 365.1 146.963 C 366.365 147.775 366.908 148.021 366.306 147.51 C 365.118 146.5 362.8 145.053 362.8 145.321 M 82.4 146.018 C 81.962 146.315 82.124 146.352 83 146.156 C 84.471 145.827 84.79 145.598 83.767 145.606 C 83.345 145.609 82.73 145.795 82.4 146.018 M 103.633 145.744 C 103.725 145.823 104.34 146.008 105 146.156 C 105.876 146.352 106.038 146.315 105.6 146.018 C 105.06 145.653 103.232 145.398 103.633 145.744 M 114.2 145.865 C 115.222 146.833 117.733 148.471 117.127 147.774 C 116.757 147.348 115.857 146.659 115.127 146.243 C 114.397 145.827 113.98 145.657 114.2 145.865 M 267.6 145.725 C 267.6 145.794 268.185 146.379 268.9 147.025 L 270.2 148.2 L 269.025 146.9 C 267.93 145.688 267.6 145.416 267.6 145.725 M 331.8 146 C 331.296 146.217 331.222 146.344 331.6 146.344 C 331.93 146.344 332.56 146.189 333 146 C 333.504 145.783 333.578 145.656 333.2 145.656 C 332.87 145.656 332.24 145.811 331.8 146 M 217.736 147.551 C 216.671 148.404 215.17 149.796 214.4 150.643 C 213.545 151.584 213.935 151.326 215.4 149.981 C 216.72 148.769 218.34 147.383 219 146.901 C 219.66 146.42 220.081 146.02 219.936 146.013 C 219.791 146.006 218.801 146.698 217.736 147.551 M 227.6 146.6 C 226.294 147.347 226.751 147.355 228.454 146.616 C 229.194 146.294 229.53 146.031 229.2 146.03 C 228.87 146.029 228.15 146.286 227.6 146.6 M 320.96 147.148 C 320.102 147.78 318.86 148.901 318.2 149.639 C 317.349 150.591 317.581 150.46 319 149.189 C 320.1 148.204 321.45 147.093 322 146.72 C 322.55 146.347 322.892 146.033 322.76 146.021 C 322.628 146.009 321.818 146.517 320.96 147.148 M 356.762 147.028 C 357.951 147.568 358.992 147.942 359.074 147.859 C 359.248 147.685 355.414 145.989 354.926 146.023 C 354.747 146.036 355.573 146.488 356.762 147.028 M 262 146.506 C 262 146.594 262.765 147.274 263.7 148.017 C 264.635 148.76 265.146 149.052 264.836 148.665 C 264.251 147.937 262 146.223 262 146.506 M 129.408 148.9 C 130.267 149.945 131.034 150.8 131.112 150.8 C 131.398 150.8 129.661 148.578 128.766 147.8 C 128.26 147.36 128.549 147.855 129.408 148.9 M 374.205 149.7 C 375.276 150.965 376.221 152 376.304 152 C 376.627 152 374.805 149.738 373.565 148.6 C 372.725 147.829 372.954 148.223 374.205 149.7 M 68.185 150.1 L 66.2 152.2 L 68.3 150.215 C 69.455 149.123 70.4 148.178 70.4 148.115 C 70.4 147.817 70.029 148.149 68.185 150.1 M 92.691 148.289 C 93.401 148.377 94.661 148.379 95.491 148.292 C 96.321 148.205 95.74 148.133 94.2 148.131 C 92.66 148.129 91.981 148.2 92.691 148.289 M 239.5 148.289 C 240.215 148.378 241.385 148.378 242.1 148.289 C 242.815 148.201 242.23 148.128 240.8 148.128 C 239.37 148.128 238.785 148.201 239.5 148.289 M 342.1 148.291 C 342.925 148.378 344.275 148.378 345.1 148.291 C 345.925 148.205 345.25 148.134 343.6 148.134 C 341.95 148.134 341.275 148.205 342.1 148.291 M 57.944 149.1 C 56.793 150.489 56.306 151.2 56.504 151.2 C 56.614 151.2 57.186 150.57 57.773 149.8 C 58.863 148.371 58.995 147.832 57.944 149.1 M 119.2 149.8 C 119.946 150.57 120.647 151.2 120.757 151.2 C 120.867 151.2 120.346 150.57 119.6 149.8 C 118.854 149.03 118.153 148.4 118.043 148.4 C 117.933 148.4 118.454 149.03 119.2 149.8 M 198.012 150.5 C 197.045 152.186 196.339 153.925 196.93 153.167 C 197.406 152.555 199.569 148.4 199.412 148.4 C 199.304 148.4 198.674 149.345 198.012 150.5 M 204 150 C 203.53 150.66 203.236 151.2 203.346 151.2 C 203.456 151.2 203.93 150.66 204.4 150 C 204.87 149.34 205.164 148.8 205.054 148.8 C 204.944 148.8 204.47 149.34 204 150 M 221.722 149.829 L 220.6 150.858 L 221.9 149.954 C 222.615 149.457 223.2 148.993 223.2 148.925 C 223.2 148.609 222.758 148.88 221.722 149.829 M 351.6 149.2 C 352.968 149.638 354.019 149.638 353 149.2 C 352.56 149.011 351.84 148.862 351.4 148.868 C 350.757 148.877 350.796 148.943 351.6 149.2 M 125.194 150.203 C 126.787 152.121 126.921 152.245 126.486 151.396 C 126.259 150.953 125.652 150.234 125.137 149.798 C 124.233 149.034 124.235 149.048 125.194 150.203 M 209.351 150.1 C 208.17 151.448 207.48 152.4 207.684 152.4 C 207.784 152.4 208.445 151.68 209.152 150.8 C 210.525 149.092 210.664 148.601 209.351 150.1 M 258.8 149.306 C 258.8 149.394 259.565 150.074 260.5 150.817 C 261.435 151.56 261.946 151.852 261.636 151.465 C 261.051 150.737 258.8 149.023 258.8 149.306 M 361.6 149.306 C 361.6 149.394 362.365 150.074 363.3 150.817 C 364.235 151.56 364.746 151.852 364.436 151.465 C 363.851 150.737 361.6 149.023 361.6 149.306 M 251.6 149.933 C 251.93 150.136 252.65 150.424 253.2 150.571 C 253.895 150.757 254.017 150.725 253.6 150.467 C 253.27 150.264 252.55 149.976 252 149.829 C 251.305 149.643 251.183 149.675 251.6 149.933 M 321.385 152.5 L 319.4 154.6 L 321.5 152.615 C 323.451 150.771 323.783 150.4 323.485 150.4 C 323.422 150.4 322.477 151.345 321.385 152.5 M 71.455 152.783 C 70.435 153.873 69.6 154.893 69.6 155.05 C 69.6 155.206 69.657 155.258 69.727 155.167 C 69.797 155.075 70.722 154.055 71.782 152.9 C 72.842 151.745 73.619 150.8 73.509 150.8 C 73.399 150.8 72.475 151.692 71.455 152.783 M 218.581 152.5 L 217 154.2 L 218.7 152.619 C 220.281 151.148 220.584 150.8 220.281 150.8 C 220.216 150.8 219.451 151.565 218.581 152.5 M 254.4 150.979 C 254.4 151.089 254.94 151.459 255.6 151.8 C 256.26 152.141 256.8 152.331 256.8 152.221 C 256.8 152.111 256.26 151.741 255.6 151.4 C 254.94 151.059 254.4 150.869 254.4 150.979 M 381.499 152.768 C 382.103 153.85 382.665 154.668 382.747 154.586 C 382.921 154.412 380.857 150.8 380.583 150.8 C 380.483 150.8 380.895 151.686 381.499 152.768 M 131.8 152.4 C 132.141 153.06 132.511 153.6 132.621 153.6 C 132.731 153.6 132.541 153.06 132.2 152.4 C 131.859 151.74 131.489 151.2 131.379 151.2 C 131.269 151.2 131.459 151.74 131.8 152.4 M 121.804 153 C 123.407 155.226 123.85 155.639 122.957 154.073 C 122.541 153.343 121.852 152.443 121.426 152.073 C 120.976 151.682 121.134 152.069 121.804 153 M 326.56 152.733 C 325.702 153.357 324.73 154.207 324.4 154.623 C 323.922 155.225 326.129 153.648 328.18 151.92 C 329.112 151.135 327.972 151.708 326.56 152.733 M 115.914 152.6 C 116.141 153.04 116.838 153.849 117.463 154.399 L 118.6 155.397 L 117.403 153.999 C 115.507 151.782 115.48 151.758 115.914 152.6 M 222.567 153.829 L 221 155.258 L 222.7 153.962 C 224.253 152.778 224.632 152.4 224.267 152.4 C 224.193 152.4 223.428 153.043 222.567 153.829 M 258.783 154.1 C 259.764 155.145 260.619 156 260.683 156 C 260.984 156 260.666 155.641 258.9 153.983 L 257 152.2 L 258.783 154.1 M 377.282 153.973 C 377.78 154.838 378.255 155.478 378.339 155.394 C 378.512 155.221 376.831 152.4 376.555 152.4 C 376.457 152.4 376.784 153.108 377.282 153.973 M 64.4 155.2 C 63.951 156.08 63.674 156.8 63.784 156.8 C 63.894 156.8 64.351 156.08 64.8 155.2 C 65.249 154.32 65.526 153.6 65.416 153.6 C 65.306 153.6 64.849 154.32 64.4 155.2 M 128.2 154.8 C 128.541 155.46 128.911 156 129.021 156 C 129.131 156 128.941 155.46 128.6 154.8 C 128.259 154.14 127.889 153.6 127.779 153.6 C 127.669 153.6 127.859 154.14 128.2 154.8 M 74.041 155.814 C 73.359 156.592 72.8 157.348 72.8 157.494 C 72.8 157.64 72.936 157.589 73.103 157.38 C 73.27 157.171 73.933 156.415 74.578 155.7 C 75.222 154.985 75.645 154.4 75.516 154.4 C 75.388 154.4 74.724 155.036 74.041 155.814 M 113.788 156.2 C 115.677 158.717 115.921 158.941 114.962 157.276 C 114.543 156.548 113.77 155.558 113.244 155.076 C 112.681 154.56 112.905 155.022 113.788 156.2 M 275.478 155.795 C 275.844 156.562 276.214 157.119 276.301 157.032 C 276.484 156.849 275.27 154.4 274.996 154.4 C 274.895 154.4 275.112 155.028 275.478 155.795 M 363.4 156.404 C 365.266 159.183 365.583 159.468 364.384 157.291 C 363.866 156.35 363.101 155.272 362.683 154.895 C 362.266 154.517 362.589 155.196 363.4 156.404 M 270.678 156.595 C 271.044 157.362 271.414 157.919 271.501 157.832 C 271.684 157.649 270.47 155.2 270.196 155.2 C 270.095 155.2 270.312 155.828 270.678 156.595 M 323.113 156.3 C 322.507 156.995 321.28 159.193 321.723 158.79 C 322.083 158.462 323.991 155.6 323.85 155.6 C 323.781 155.6 323.449 155.915 323.113 156.3 M 369.281 158.191 C 369.759 159.176 370.219 159.914 370.303 159.83 C 370.484 159.649 368.868 156.4 368.597 156.4 C 368.494 156.4 368.802 157.206 369.281 158.191 M 53.029 158.229 C 52.881 158.815 52.838 159.372 52.932 159.466 C 53.027 159.56 53.224 159.158 53.371 158.571 C 53.519 157.985 53.562 157.428 53.468 157.334 C 53.373 157.24 53.176 157.642 53.029 158.229 M 194.6 159.6 C 194.446 160.51 194.404 161.338 194.507 161.44 C 194.61 161.543 194.813 160.877 194.96 159.96 C 195.107 159.043 195.148 158.215 195.053 158.12 C 194.958 158.024 194.754 158.69 194.6 159.6 M 66.774 160.268 C 66.551 160.856 66.42 161.606 66.484 161.936 C 66.548 162.265 66.8 161.784 67.044 160.867 C 67.545 158.99 67.39 158.648 66.774 160.268 M 56.854 162 C 56.819 162.55 56.696 163.45 56.583 164 L 56.377 165 L 56.807 164.015 C 57.043 163.474 57.165 162.574 57.078 162.015 L 56.92 161 L 56.854 162 M 389.701 162.6 C 389.705 163.48 389.787 163.793 389.883 163.295 C 389.979 162.798 389.975 162.078 389.875 161.695 C 389.775 161.313 389.696 161.72 389.701 162.6 M 296.909 163.2 C 296.909 164.19 296.987 164.595 297.082 164.1 C 297.178 163.605 297.178 162.795 297.082 162.3 C 296.987 161.805 296.909 162.21 296.909 163.2 M 277.714 163.8 C 277.717 164.9 277.795 165.303 277.887 164.695 C 277.979 164.086 277.977 163.186 277.882 162.695 C 277.787 162.203 277.711 162.7 277.714 163.8 M 287.309 163.6 C 287.309 164.59 287.387 164.995 287.482 164.5 C 287.578 164.005 287.578 163.195 287.482 162.7 C 287.387 162.205 287.309 162.61 287.309 163.6 M 70.893 163.6 C 70.893 164.37 70.975 164.685 71.076 164.3 C 71.176 163.915 71.176 163.285 71.076 162.9 C 70.975 162.515 70.893 162.83 70.893 163.6 M 208.496 179.5 L 208.4 196.8 L 232.578 196.8 L 256.756 196.8 L 256.919 198.7 L 257.082 200.6 L 257.041 198.6 L 257 196.6 L 232.904 196.497 L 208.809 196.394 L 208.7 179.297 L 208.591 162.2 L 208.496 179.5 M 311.293 163.6 C 311.293 164.37 311.375 164.685 311.476 164.3 C 311.576 163.915 311.576 163.285 311.476 162.9 C 311.375 162.515 311.293 162.83 311.293 163.6 M 315.411 164.9 C 315.272 166.275 315.213 173.16 315.279 180.2 L 315.4 193 L 337.7 193.005 L 360 193.01 L 337.77 192.902 L 315.541 192.793 L 315.67 177.596 C 315.742 169.238 315.769 162.4 315.732 162.4 C 315.694 162.4 315.55 163.525 315.411 164.9 M 116.901 164.2 C 116.905 165.08 116.987 165.393 117.083 164.895 C 117.179 164.398 117.175 163.678 117.075 163.295 C 116.975 162.913 116.896 163.32 116.901 164.2 M 212.893 164 C 212.893 164.77 212.975 165.085 213.076 164.7 C 213.176 164.315 213.176 163.685 213.076 163.3 C 212.975 162.915 212.893 163.23 212.893 164 M 272.909 164.4 C 272.909 165.39 272.987 165.795 273.082 165.3 C 273.178 164.805 273.178 163.995 273.082 163.5 C 272.987 163.005 272.909 163.41 272.909 164.4 M 135.758 168.6 C 135.758 171.68 135.821 172.887 135.897 171.282 C 135.973 169.678 135.973 167.158 135.896 165.682 C 135.819 164.207 135.757 165.52 135.758 168.6 M 268.479 167.136 L 268.4 170.471 L 266.037 170.336 C 264.737 170.261 263.758 170.335 263.861 170.5 C 264.203 171.051 268.409 170.842 268.631 170.263 C 268.745 169.967 268.775 168.392 268.698 166.763 L 268.559 163.8 L 268.479 167.136 M 385.376 167.4 L 385.4 170.6 L 387.8 170.6 L 390.2 170.6 L 390.238 168.4 L 390.276 166.2 L 390.117 168.3 L 389.958 170.4 L 387.795 170.4 L 385.632 170.4 L 385.492 167.3 L 385.352 164.2 L 385.376 167.4 M 61.794 214.6 C 61.794 242.32 61.842 253.601 61.9 239.669 C 61.958 225.737 61.958 203.057 61.9 189.269 C 61.842 175.481 61.794 186.88 61.794 214.6 M 198.594 214.8 C 198.594 242.63 198.642 254.015 198.7 240.1 C 198.758 226.185 198.758 203.415 198.7 189.5 C 198.642 175.585 198.594 186.97 198.594 214.8 M 366.57 167.6 L 366.6 170.6 L 368.967 170.6 C 370.564 170.6 371.367 170.434 371.437 170.09 C 371.494 169.81 371.449 169.764 371.337 169.99 C 371.225 170.216 370.166 170.4 368.984 170.4 L 366.835 170.4 L 366.687 167.5 L 366.539 164.6 L 366.57 167.6 M 56.594 214.6 C 56.594 241.88 56.642 252.981 56.7 239.269 C 56.758 225.557 56.758 203.237 56.7 189.669 C 56.642 176.101 56.594 187.32 56.594 214.6 M 320.191 177 L 320.2 189 L 340.062 189.2 C 350.986 189.31 359.84 189.265 359.738 189.1 C 359.636 188.935 350.746 188.8 339.982 188.8 L 320.412 188.8 L 320.297 176.9 L 320.182 165 L 320.191 177 M 371.293 166.8 C 371.293 167.57 371.375 167.885 371.476 167.5 C 371.576 167.115 371.576 166.485 371.476 166.1 C 371.375 165.715 371.293 166.03 371.293 166.8 M 285 170.4 L 282.6 170.666 L 284.876 170.733 C 286.128 170.77 287.264 170.62 287.4 170.4 C 287.536 170.18 287.592 170.03 287.524 170.067 C 287.456 170.104 286.32 170.254 285 170.4 M 274.3 170.689 C 275.015 170.778 276.185 170.778 276.9 170.689 C 277.615 170.601 277.03 170.528 275.6 170.528 C 274.17 170.528 273.585 170.601 274.3 170.689 M 377.1 170.689 C 377.815 170.778 378.985 170.778 379.7 170.689 C 380.415 170.601 379.83 170.528 378.4 170.528 C 376.97 170.528 376.385 170.601 377.1 170.689 M 377.305 180.287 C 377.914 180.379 378.814 180.377 379.305 180.282 C 379.797 180.187 379.3 180.111 378.2 180.114 C 377.1 180.117 376.697 180.195 377.305 180.287 M 28.5 181.076 C 28.885 181.176 29.515 181.176 29.9 181.076 C 30.285 180.975 29.97 180.893 29.2 180.893 C 28.43 180.893 28.115 180.975 28.5 181.076 M 38.188 181.294 C 38.622 181.572 40.152 182.875 41.588 184.189 L 44.2 186.577 L 42 184.258 C 40.79 182.982 39.26 181.68 38.6 181.363 C 37.94 181.047 37.755 181.016 38.188 181.294 M 37.2 183.481 C 37.75 183.875 39.1 185.002 40.2 185.984 L 42.2 187.771 L 40.503 185.974 C 39.57 184.985 38.22 183.859 37.503 183.471 C 36.244 182.789 36.234 182.79 37.2 183.481 M 15.955 184.3 C 14.681 185.708 13.856 186.8 14.066 186.8 C 14.157 186.8 14.908 185.99 15.735 185 C 17.387 183.024 17.535 182.553 15.955 184.3 M 390.447 185.401 C 391.463 186.501 392.768 188.117 393.347 188.993 C 393.926 189.869 394.4 190.441 394.4 190.265 C 394.4 189.628 392.036 186.565 390.337 185.001 L 388.6 183.403 L 390.447 185.401 M 389.351 187.576 C 390.4 188.773 391.598 190.393 392.012 191.176 C 392.426 191.959 392.773 192.406 392.782 192.169 C 392.812 191.456 390.555 188.296 388.948 186.8 C 387.728 185.665 387.804 185.811 389.351 187.576 M 363.523 187.5 C 362.818 188.321 362.29 189.2 362.501 189.2 C 362.583 189.2 363.049 188.66 363.537 188 C 364.501 186.696 364.492 186.372 363.523 187.5 M 237.2 189.098 L 256.8 189.208 L 256.8 191 L 256.8 192.793 L 234.8 192.902 L 212.8 193.01 L 234.9 193.005 L 257 193 L 257 191 L 257 189 L 237.3 188.994 L 217.6 188.989 L 237.2 189.098 M 46.602 191.997 C 46.467 192.215 46.541 192.71 46.766 193.097 C 47.117 193.7 47.177 193.644 47.188 192.7 C 47.201 191.55 47.016 191.328 46.602 191.997 M 360.032 195.6 L 360 196.6 L 335.42 196.4 C 321.901 196.29 310.972 196.332 311.134 196.494 C 311.296 196.656 322.402 196.797 335.814 196.808 C 361.723 196.83 360.986 196.881 360.262 195.092 C 360.153 194.822 360.049 195.05 360.032 195.6 M 10.8 195.712 C 10.8 196.206 10.305 196.393 8.7 196.505 L 6.6 196.652 L 8.713 196.726 C 10.721 196.796 11.849 196.116 11.049 195.316 C 10.912 195.179 10.8 195.357 10.8 195.712 M 378.1 195.876 C 378.485 195.976 379.115 195.976 379.5 195.876 C 379.885 195.775 379.57 195.693 378.8 195.693 C 378.03 195.693 377.715 195.775 378.1 195.876 M 381.911 195.893 C 382.851 195.978 384.291 195.977 385.111 195.891 C 385.93 195.805 385.16 195.736 383.4 195.737 C 381.64 195.739 380.97 195.809 381.911 195.893 M 13.551 196.513 C 13.724 196.685 16.101 196.774 18.833 196.711 L 23.8 196.597 L 18.519 196.398 C 15.614 196.289 13.379 196.341 13.551 196.513 M 396.31 196.44 C 396.741 196.825 400.155 197.192 399.748 196.809 C 399.557 196.629 398.64 196.414 397.71 196.331 C 396.781 196.249 396.151 196.297 396.31 196.44 M 1.511 197.093 C 2.451 197.178 3.891 197.177 4.711 197.091 C 5.53 197.005 4.76 196.936 3 196.937 C 1.24 196.939 0.57 197.009 1.511 197.093 M 362.928 197.8 C 363.004 198.548 363.311 198.601 367.605 198.619 L 372.2 198.638 L 367.727 198.507 C 363.913 198.394 363.224 198.274 363.05 197.688 C 362.897 197.173 362.867 197.201 362.928 197.8 M 386.6 197.6 L 382.6 197.845 L 386.4 197.887 C 388.49 197.911 391.1 197.79 392.2 197.618 L 394.2 197.307 L 392.4 197.331 C 391.41 197.344 388.8 197.465 386.6 197.6 M 0.905 198.287 C 1.514 198.379 2.414 198.377 2.905 198.282 C 3.397 198.187 2.9 198.111 1.8 198.114 C 0.7 198.117 0.297 198.195 0.905 198.287 M 375.315 198.296 C 376.588 198.376 378.568 198.375 379.715 198.294 C 380.862 198.214 379.82 198.149 377.4 198.15 C 374.98 198.151 374.042 198.216 375.315 198.296 M 6.9 198.676 C 7.285 198.776 7.915 198.776 8.3 198.676 C 8.685 198.575 8.37 198.493 7.6 198.493 C 6.83 198.493 6.515 198.575 6.9 198.676 M 25.907 199.89 C 26.626 199.979 27.706 199.977 28.307 199.886 C 28.908 199.795 28.32 199.722 27 199.724 C 25.68 199.726 25.188 199.801 25.907 199.89 M 46.697 200.863 C 46.535 201.447 46.278 202.257 46.124 202.663 C 45.858 203.364 45.879 203.366 46.549 202.702 C 46.975 202.28 47.201 201.568 47.122 200.902 L 46.99 199.8 L 46.697 200.863 M 208.4 232.68 C 208.29 250.544 208.336 265.024 208.502 264.858 C 208.669 264.691 208.759 250.075 208.702 232.378 L 208.6 200.2 L 208.4 232.68 M 395.429 202.629 C 395.281 203.215 395.238 203.772 395.332 203.866 C 395.427 203.96 395.624 203.558 395.771 202.971 C 395.919 202.385 395.962 201.828 395.868 201.734 C 395.773 201.64 395.576 202.042 395.429 202.629 M 42.439 205.024 C 41.977 205.807 41.78 206.336 42.002 206.199 C 42.436 205.931 43.734 203.6 43.45 203.6 C 43.356 203.6 42.901 204.241 42.439 205.024 M 256.3 204.265 C 256.594 204.383 256.8 205.194 256.8 206.23 L 256.8 207.992 L 237.2 208.102 L 217.6 208.211 L 237.3 208.206 L 257 208.2 L 257.121 206.1 C 257.225 204.29 257.142 204.004 256.521 204.032 C 256.101 204.05 256.009 204.147 256.3 204.265 M 315.295 217.9 L 315.389 231.8 L 315.5 218.128 C 315.602 205.538 315.665 204.442 316.305 204.275 C 316.822 204.139 316.769 204.081 316.1 204.046 L 315.2 204 L 315.295 217.9 M 40.175 208.1 L 39 209.4 L 40.3 208.225 C 41.512 207.13 41.784 206.8 41.475 206.8 C 41.406 206.8 40.821 207.385 40.175 208.1 M 15.8 209.17 C 17.456 210.958 21.51 213.823 21.872 213.461 C 21.985 213.348 21.364 212.892 20.492 212.447 C 19.619 212.002 17.847 210.694 16.553 209.54 C 14.411 207.631 14.343 207.598 15.8 209.17 M 366.8 209.343 C 367.79 210.398 368.96 211.452 369.4 211.685 C 369.84 211.918 370.11 212.028 370 211.931 C 369.89 211.833 368.72 210.779 367.4 209.589 L 365 207.425 L 366.8 209.343 M 19.543 209.5 C 20.308 210.215 21.123 210.8 21.356 210.8 C 21.588 210.8 21.333 210.502 20.789 210.138 C 20.245 209.773 19.43 209.188 18.977 208.838 C 18.524 208.487 18.779 208.785 19.543 209.5 M 320.181 208.506 C 320.074 208.784 320.038 213.959 320.1 220.006 L 320.213 231 L 320.307 219.704 L 320.4 208.408 L 340.1 208.3 L 359.8 208.192 L 340.087 208.096 C 324.498 208.02 320.334 208.106 320.181 208.506 M 388.975 209.7 L 387.8 211 L 389.1 209.825 C 389.815 209.179 390.4 208.594 390.4 208.525 C 390.4 208.216 390.07 208.488 388.975 209.7 M 391.027 210.705 C 389.846 212.078 389.58 212.518 390.363 211.8 C 391.55 210.713 393.439 208.393 393.127 208.405 C 393.057 208.408 392.112 209.443 391.027 210.705 M 365 210.742 C 366.1 211.907 367.36 213.051 367.8 213.284 C 368.24 213.518 368.51 213.63 368.4 213.534 C 368.29 213.438 367.03 212.294 365.6 210.992 L 363 208.624 L 365 210.742 M 40.2 210.861 C 39.76 211.308 38.725 212.021 37.9 212.445 C 37.075 212.869 36.4 213.306 36.4 213.416 C 36.4 213.526 37.075 213.262 37.9 212.83 C 39.607 211.936 42.003 210.024 41.4 210.038 C 41.18 210.043 40.64 210.414 40.2 210.861 M 34.2 211.618 C 33.1 212.03 32.493 212.374 32.851 212.383 C 33.579 212.402 36.4 211.298 36.4 210.995 C 36.4 210.888 36.355 210.816 36.3 210.835 C 36.245 210.854 35.3 211.206 34.2 211.618 M 386.297 211.566 C 384.653 212.619 384.425 212.991 385.875 212.254 C 386.576 211.897 387.261 211.424 387.398 211.203 C 387.719 210.684 387.623 210.715 386.297 211.566 M 25.4 212.41 C 26.17 212.731 29.907 212.951 29.567 212.655 C 29.475 212.576 28.32 212.413 27 212.293 C 25.551 212.162 24.917 212.208 25.4 212.41 M 377.505 214.283 C 378.002 214.379 378.722 214.375 379.105 214.275 C 379.487 214.175 379.08 214.096 378.2 214.101 C 377.32 214.105 377.007 214.187 377.505 214.283 M 26.931 214.899 C 27.993 215.081 29.883 215.078 31.131 214.893 C 33.177 214.59 32.987 214.558 29.2 214.563 C 25.689 214.569 25.317 214.624 26.931 214.899 M 372.438 215.598 C 372.79 215.803 373.87 216.067 374.838 216.185 C 376.504 216.387 376.481 216.367 374.4 215.816 C 371.799 215.128 371.596 215.105 372.438 215.598 M 366.566 226.945 C 366.451 227.244 366.422 228.549 366.503 229.845 L 366.649 232.2 L 366.724 229.519 L 366.8 226.838 L 369.3 226.696 L 371.8 226.554 L 369.287 226.477 C 367.48 226.422 366.716 226.553 366.566 226.945 M 377.1 226.689 C 377.815 226.778 378.985 226.778 379.7 226.689 C 380.415 226.601 379.83 226.528 378.4 226.528 C 376.97 226.528 376.385 226.601 377.1 226.689 M 385.199 226.681 C 385.199 226.856 386.267 226.94 387.573 226.866 L 389.948 226.732 L 390.116 228.169 L 390.284 229.607 L 390.242 228.103 L 390.2 226.6 L 387.7 226.481 C 386.325 226.415 385.2 226.505 385.199 226.681 M 385.334 230.4 C 385.334 232.05 385.405 232.725 385.491 231.9 C 385.578 231.075 385.578 229.725 385.491 228.9 C 385.405 228.075 385.334 228.75 385.334 230.4 M 296.909 233.6 C 296.909 234.59 296.987 234.995 297.082 234.5 C 297.178 234.005 297.178 233.195 297.082 232.7 C 296.987 232.205 296.909 232.61 296.909 233.6 M 311.293 233.2 C 311.293 233.97 311.375 234.285 311.476 233.9 C 311.576 233.515 311.576 232.885 311.476 232.5 C 311.375 232.115 311.293 232.43 311.293 233.2 M 380.493 233.6 C 380.493 234.37 380.575 234.685 380.676 234.3 C 380.776 233.915 380.776 233.285 380.676 232.9 C 380.575 232.515 380.493 232.83 380.493 233.6 M 389.693 234 C 389.693 234.77 389.775 235.085 389.876 234.7 C 389.976 234.315 389.976 233.685 389.876 233.3 C 389.775 232.915 389.693 233.23 389.693 234 M 302.456 237.6 C 302.456 237.93 302.611 238.56 302.8 239 C 303.017 239.504 303.144 239.578 303.144 239.2 C 303.144 238.87 302.989 238.24 302.8 237.8 C 302.583 237.296 302.456 237.222 302.456 237.6 M 318.364 240.733 C 318.58 241.136 319.071 241.721 319.455 242.033 C 319.887 242.384 319.79 242.104 319.201 241.3 C 318.151 239.865 317.757 239.598 318.364 240.733 M 361 242.686 C 359.68 243.924 359.14 244.562 359.8 244.103 C 360.951 243.304 363.948 240.381 363.578 240.418 C 363.48 240.428 362.32 241.449 361 242.686 M 377.751 241.7 C 377.383 242.415 376.819 243.45 376.498 244 C 375.939 244.959 375.943 244.967 376.589 244.2 C 377.378 243.263 378.907 240.4 378.618 240.4 C 378.51 240.4 378.119 240.985 377.751 241.7 M 324.8 242.2 C 325.546 242.97 326.247 243.6 326.357 243.6 C 326.467 243.6 325.946 242.97 325.2 242.2 C 324.454 241.43 323.753 240.8 323.643 240.8 C 323.533 240.8 324.054 241.43 324.8 242.2 M 365.823 243.522 C 363.872 245.771 363.868 245.779 365.555 244.2 C 366.976 242.869 368.347 241.138 367.914 241.222 C 367.851 241.234 366.91 242.269 365.823 243.522 M 304 241.798 C 304 242.236 305.976 245.6 306.234 245.6 C 306.344 245.6 305.944 244.745 305.346 243.7 C 304.056 241.448 304 241.369 304 241.798 M 309.149 242.2 C 309.365 242.64 309.834 243.36 310.193 243.8 L 310.844 244.6 L 310.451 243.8 C 310.235 243.36 309.766 242.64 309.407 242.2 L 308.756 241.4 L 309.149 242.2 M 386.682 244.211 C 386.092 245.415 385.694 246.4 385.798 246.4 C 386.067 246.4 388.084 242.351 387.905 242.171 C 387.823 242.089 387.273 243.007 386.682 244.211 M 321.2 244.2 C 321.946 244.97 322.647 245.6 322.757 245.6 C 322.867 245.6 322.346 244.97 321.6 244.2 C 320.854 243.43 320.153 242.8 320.043 242.8 C 319.933 242.8 320.454 243.43 321.2 244.2 M 369.427 245.905 C 368.246 247.278 367.98 247.718 368.763 247 C 369.95 245.913 371.839 243.593 371.527 243.605 C 371.457 243.608 370.512 244.643 369.427 245.905 M 380.585 245.3 C 379.968 246.235 379.72 246.789 380.032 246.531 C 380.633 246.034 382.164 243.6 381.876 243.6 C 381.783 243.6 381.202 244.365 380.585 245.3 M 311.896 246.2 C 312.574 247.08 313.816 248.43 314.655 249.2 C 315.653 250.116 315.435 249.77 314.023 248.2 C 311.033 244.874 310.454 244.33 311.896 246.2 M 376.025 250.726 C 374.167 252.638 373.437 253.557 374.4 252.769 C 375.91 251.534 379.982 247.153 379.552 247.226 C 379.468 247.24 377.881 248.815 376.025 250.726 M 384 248.8 C 383.53 249.46 383.236 250 383.346 250 C 383.456 250 383.93 249.46 384.4 248.8 C 384.87 248.14 385.164 247.6 385.054 247.6 C 384.944 247.6 384.47 248.14 384 248.8 M 358.4 248.8 C 357.63 249.222 357.144 249.574 357.32 249.583 C 357.744 249.605 360 248.432 360 248.19 C 360 247.928 359.977 247.937 358.4 248.8 M 327.6 248.636 C 327.6 248.904 331.278 250.455 331.466 250.267 C 331.55 250.183 330.715 249.739 329.609 249.279 C 328.504 248.82 327.6 248.531 327.6 248.636 M 370.706 250.436 L 369.4 251.672 L 370.9 250.589 C 371.725 249.993 372.4 249.436 372.4 249.353 C 372.4 248.98 371.922 249.286 370.706 250.436 M 309.717 250.264 C 310.061 250.823 314 254.154 314 253.886 C 314 253.782 312.972 252.82 311.716 251.749 C 310.46 250.677 309.561 250.009 309.717 250.264 M 363.4 250.8 C 361.836 251.836 362.392 251.837 364.09 250.801 C 364.811 250.362 365.22 250.004 365 250.004 C 364.78 250.005 364.06 250.363 363.4 250.8 M 324 251.396 C 324 251.67 326.449 252.884 326.632 252.701 C 326.719 252.614 326.162 252.244 325.395 251.878 C 324.628 251.512 324 251.295 324 251.396 M 367.681 252.572 C 365.823 253.885 365.562 254.261 367.131 253.362 C 367.863 252.943 368.65 252.375 368.88 252.1 C 369.471 251.393 369.193 251.502 367.681 252.572 M 342.1 252.291 C 342.925 252.378 344.275 252.378 345.1 252.291 C 345.925 252.205 345.25 252.134 343.6 252.134 C 341.95 252.134 341.275 252.205 342.1 252.291 M 360 252.6 C 359.45 252.914 359.18 253.172 359.4 253.172 C 359.62 253.172 360.25 252.914 360.8 252.6 C 361.35 252.286 361.62 252.028 361.4 252.028 C 361.18 252.028 360.55 252.286 360 252.6 M 379.586 254.3 L 377.4 256.6 L 379.7 254.414 C 381.837 252.382 382.183 252 381.886 252 C 381.824 252 380.789 253.035 379.586 254.3 M 324.4 255.8 C 324.95 256.114 325.58 256.372 325.8 256.372 C 326.02 256.372 325.75 256.114 325.2 255.8 C 324.65 255.486 324.02 255.228 323.8 255.228 C 323.58 255.228 323.85 255.486 324.4 255.8 M 375.6 257.649 C 374.206 258.871 374.205 258.872 375.488 258.019 C 376.196 257.548 376.882 256.991 377.012 256.781 C 377.397 256.157 377.077 256.354 375.6 257.649 M 318.4 256.996 C 318.4 257.27 320.849 258.484 321.032 258.301 C 321.119 258.214 320.562 257.844 319.795 257.478 C 319.028 257.112 318.4 256.895 318.4 256.996 M 323.2 259.334 C 323.2 259.437 323.781 259.724 324.491 259.972 C 325.201 260.219 325.606 260.257 325.391 260.056 C 324.935 259.629 323.2 259.058 323.2 259.334 M 341.5 259.895 C 342.655 259.976 344.545 259.976 345.7 259.895 C 346.855 259.814 345.91 259.748 343.6 259.748 C 341.29 259.748 340.345 259.814 341.5 259.895 M 369.2 261.6 C 368.43 262.022 367.944 262.374 368.12 262.383 C 368.544 262.405 370.8 261.232 370.8 260.99 C 370.8 260.728 370.777 260.737 369.2 261.6 M 135.714 263.4 C 135.717 264.5 135.795 264.903 135.887 264.295 C 135.979 263.686 135.977 262.786 135.882 262.295 C 135.787 261.803 135.711 262.3 135.714 263.4 M 365.2 263.4 C 364.65 263.714 364.38 263.972 364.6 263.972 C 364.82 263.972 365.45 263.714 366 263.4 C 366.55 263.086 366.82 262.828 366.6 262.828 C 366.38 262.828 365.75 263.086 365.2 263.4 M 340.713 263.495 C 341.876 263.576 343.676 263.576 344.713 263.493 C 345.751 263.411 344.8 263.345 342.6 263.346 C 340.4 263.347 339.551 263.414 340.713 263.495 M 323 264.155 C 323.66 264.455 324.65 264.811 325.2 264.946 C 326.003 265.143 325.964 265.084 325 264.645 C 324.34 264.345 323.35 263.989 322.8 263.854 C 321.997 263.657 322.036 263.716 323 264.155 M 337.1 267.482 C 337.595 267.578 338.405 267.578 338.9 267.482 C 339.395 267.387 338.99 267.309 338 267.309 C 337.01 267.309 336.605 267.387 337.1 267.482 M 347.705 267.487 C 348.314 267.579 349.214 267.577 349.705 267.482 C 350.197 267.387 349.7 267.311 348.6 267.314 C 347.5 267.317 347.097 267.395 347.705 267.487" stroke-linecap="round"/>
</g>
<g transform="matrix(2.2727 0 0 2.2727 498.5773 496.4861)" id="path3">
<path style="stroke: none; stroke-width: 1; stroke-dasharray: none; stroke-linecap: butt; stroke-dashoffset: 0; stroke-linejoin: miter; stroke-miterlimit: 4; is-custom-font: none; font-file-url: none; fill: rgb(130,141,170); fill-rule: evenodd; opacity: 1;" transform=" translate(-199.3763, -198.4548)" d="M 91.5 129.496 C 92.875 129.574 95.125 129.574 96.5 129.496 C 97.875 129.418 96.75 129.354 94 129.354 C 91.25 129.354 90.125 129.418 91.5 129.496 M 238.1 129.497 C 239.585 129.574 242.015 129.574 243.5 129.497 C 244.985 129.42 243.77 129.357 240.8 129.357 C 237.83 129.357 236.615 129.42 238.1 129.497 M 341.317 129.497 C 342.811 129.574 345.151 129.574 346.517 129.496 C 347.882 129.418 346.66 129.355 343.8 129.355 C 340.94 129.356 339.822 129.42 341.317 129.497 M 100.9 129.876 C 101.285 129.976 101.915 129.976 102.3 129.876 C 102.685 129.775 102.37 129.693 101.6 129.693 C 100.83 129.693 100.515 129.775 100.9 129.876 M 232.5 129.876 C 232.885 129.976 233.515 129.976 233.9 129.876 C 234.285 129.775 233.97 129.693 233.2 129.693 C 232.43 129.693 232.115 129.775 232.5 129.876 M 155.697 198.3 C 155.644 235.095 155.735 265.2 155.9 265.2 C 156.171 265.2 156.17 219.103 155.897 155.4 C 155.84 142.2 155.75 161.505 155.697 198.3 M 174.598 198.167 C 174.6 257.174 174.67 264.952 175.2 265.097 C 175.643 265.218 175.669 265.168 175.301 264.908 C 174.907 264.628 174.781 250.605 174.699 197.977 L 174.596 131.4 L 174.598 198.167 M 87.105 133.483 C 87.602 133.579 88.322 133.575 88.705 133.475 C 89.087 133.375 88.68 133.296 87.8 133.301 C 86.92 133.305 86.607 133.387 87.105 133.483 M 99.7 133.476 C 100.085 133.576 100.715 133.576 101.1 133.476 C 101.485 133.375 101.17 133.293 100.4 133.293 C 99.63 133.293 99.315 133.375 99.7 133.476 M 233.905 133.483 C 234.402 133.579 235.122 133.575 235.505 133.475 C 235.887 133.375 235.48 133.296 234.6 133.301 C 233.72 133.305 233.407 133.387 233.905 133.483 M 246.305 133.483 C 246.802 133.579 247.522 133.575 247.905 133.475 C 248.287 133.375 247.88 133.296 247 133.301 C 246.12 133.305 245.807 133.387 246.305 133.483 M 336.5 133.476 C 336.885 133.576 337.515 133.576 337.9 133.476 C 338.285 133.375 337.97 133.293 337.2 133.293 C 336.43 133.293 336.115 133.375 336.5 133.476 M 348.9 133.476 C 349.285 133.576 349.915 133.576 350.3 133.476 C 350.685 133.375 350.37 133.293 349.6 133.293 C 348.83 133.293 348.515 133.375 348.9 133.476 M 91.3 137.076 C 91.685 137.176 92.315 137.176 92.7 137.076 C 93.085 136.975 92.77 136.893 92 136.893 C 91.23 136.893 90.915 136.975 91.3 137.076 M 237.7 137.076 C 238.085 137.176 238.715 137.176 239.1 137.076 C 239.485 136.975 239.17 136.893 238.4 136.893 C 237.63 136.893 237.315 136.975 237.7 137.076 M 242.5 137.076 C 242.885 137.176 243.515 137.176 243.9 137.076 C 244.285 136.975 243.97 136.893 243.2 136.893 C 242.43 136.893 242.115 136.975 242.5 137.076 M 340.5 137.076 C 340.885 137.176 341.515 137.176 341.9 137.076 C 342.285 136.975 341.97 136.893 341.2 136.893 C 340.43 136.893 340.115 136.975 340.5 137.076 M 344.9 137.076 C 345.285 137.176 345.915 137.176 346.3 137.076 C 346.685 136.975 346.37 136.893 345.6 136.893 C 344.83 136.893 344.515 136.975 344.9 137.076 M 306.989 142.9 L 304.2 145.8 L 307.1 143.011 C 308.695 141.477 310 140.172 310 140.111 C 310 139.817 309.58 140.206 306.989 142.9 M 91.5 140.696 C 92.875 140.774 95.125 140.774 96.5 140.696 C 97.875 140.618 96.75 140.554 94 140.554 C 91.25 140.554 90.125 140.618 91.5 140.696 M 238.117 140.697 C 239.611 140.774 241.951 140.774 243.317 140.696 C 244.682 140.618 243.46 140.555 240.6 140.555 C 237.74 140.556 236.622 140.62 238.117 140.697 M 341.1 140.696 C 342.475 140.774 344.725 140.774 346.1 140.696 C 347.475 140.618 346.35 140.554 343.6 140.554 C 340.85 140.554 339.725 140.618 341.1 140.696 M 203.785 143.3 L 201.8 145.4 L 203.9 143.415 C 205.851 141.571 206.183 141.2 205.885 141.2 C 205.822 141.2 204.877 142.145 203.785 143.3 M 57.178 143.1 L 55.8 144.6 L 57.3 143.222 C 58.696 141.938 58.984 141.6 58.678 141.6 C 58.612 141.6 57.937 142.275 57.178 143.1 M 129.2 141.725 C 129.2 141.794 129.785 142.379 130.5 143.025 L 131.8 144.2 L 130.625 142.9 C 129.53 141.688 129.2 141.416 129.2 141.725 M 276 141.725 C 276 141.794 276.585 142.379 277.3 143.025 L 278.6 144.2 L 277.425 142.9 C 276.33 141.688 276 141.416 276 141.725 M 376.2 145.6 C 377.728 147.14 379.069 148.4 379.179 148.4 C 379.289 148.4 378.128 147.14 376.6 145.6 C 375.072 144.06 373.731 142.8 373.621 142.8 C 373.511 142.8 374.672 144.06 376.2 145.6 M 310.386 145.5 L 308.2 147.8 L 310.5 145.614 C 311.765 144.411 312.8 143.376 312.8 143.314 C 312.8 143.017 312.418 143.363 310.386 145.5 M 207.578 145.5 L 206.2 147 L 207.7 145.622 C 209.096 144.338 209.384 144 209.078 144 C 209.012 144 208.337 144.675 207.578 145.5 M 92.912 144.695 C 93.964 144.777 95.584 144.776 96.512 144.692 C 97.44 144.608 96.58 144.541 94.6 144.542 C 92.62 144.543 91.86 144.612 92.912 144.695 M 239.511 144.693 C 240.451 144.778 241.891 144.777 242.711 144.691 C 243.53 144.605 242.76 144.536 241 144.537 C 239.24 144.539 238.57 144.609 239.511 144.693 M 341.891 144.689 C 342.601 144.777 343.861 144.779 344.691 144.692 C 345.521 144.605 344.94 144.533 343.4 144.531 C 341.86 144.529 341.181 144.6 341.891 144.689 M 122 146.925 C 122 146.994 122.585 147.579 123.3 148.225 L 124.6 149.4 L 123.425 148.1 C 122.33 146.888 122 146.616 122 146.925 M 214.778 149.9 L 213.4 151.4 L 214.9 150.022 C 216.296 148.738 216.584 148.4 216.278 148.4 C 216.212 148.4 215.537 149.075 214.778 149.9 M 317.578 149.9 L 316.2 151.4 L 317.7 150.022 C 319.096 148.738 319.384 148.4 319.078 148.4 C 319.012 148.4 318.337 149.075 317.578 149.9 M 67.775 150.1 L 66.6 151.4 L 67.9 150.225 C 69.112 149.13 69.384 148.8 69.075 148.8 C 69.006 148.8 68.421 149.385 67.775 150.1 M 136.2 150.8 C 136.541 151.46 136.911 152 137.021 152 C 137.131 152 136.941 151.46 136.6 150.8 C 136.259 150.14 135.889 149.6 135.779 149.6 C 135.669 149.6 135.859 150.14 136.2 150.8 M 266 149.725 C 266 149.794 266.585 150.379 267.3 151.025 L 268.6 152.2 L 267.425 150.9 C 266.33 149.688 266 149.416 266 149.725 M 112.383 154.1 C 114.041 155.866 114.4 156.184 114.4 155.883 C 114.4 155.819 113.545 154.964 112.5 153.983 L 110.6 152.2 L 112.383 154.1 M 74.981 154.5 L 73.4 156.2 L 75.1 154.619 C 76.681 153.148 76.984 152.8 76.681 152.8 C 76.616 152.8 75.851 153.565 74.981 154.5 M 373.4 156 C 373.741 156.66 374.111 157.2 374.221 157.2 C 374.331 157.2 374.141 156.66 373.8 156 C 373.459 155.34 373.089 154.8 372.979 154.8 C 372.869 154.8 373.059 155.34 373.4 156 M 140.594 214 C 140.594 242.27 140.642 253.835 140.7 239.7 C 140.758 225.565 140.758 202.435 140.7 188.3 C 140.642 174.165 140.594 185.73 140.594 214 M 301.392 198.6 C 301.392 218.4 301.44 226.441 301.5 216.47 C 301.559 206.498 301.559 190.298 301.5 180.47 C 301.44 170.641 301.392 178.8 301.392 198.6 M 70.594 212.6 C 70.594 239.88 70.642 250.981 70.7 237.269 C 70.758 223.557 70.758 201.237 70.7 187.669 C 70.642 174.101 70.594 185.32 70.594 212.6 M 217.379 176.2 C 217.379 183.46 217.433 186.486 217.499 182.925 C 217.565 179.364 217.566 173.424 217.499 169.725 C 217.433 166.026 217.379 168.94 217.379 176.2 M 126.496 214.3 C 126.443 242.295 126.535 265.2 126.7 265.2 C 126.971 265.2 126.969 229.645 126.696 181.6 C 126.638 171.59 126.549 186.305 126.496 214.3 M 194.198 214.167 C 194.2 258.952 194.271 264.953 194.8 265.097 C 195.243 265.218 195.269 265.168 194.902 264.908 C 194.509 264.63 194.381 253.804 194.299 213.977 L 194.195 163.4 L 194.198 214.167 M 208.183 180 C 208.183 189.13 208.235 192.865 208.3 188.3 C 208.364 183.735 208.364 176.265 208.3 171.7 C 208.235 167.135 208.183 170.87 208.183 180 M 380.54 167.2 C 380.54 169.07 380.609 169.835 380.693 168.9 C 380.777 167.965 380.777 166.435 380.693 165.5 C 380.609 164.565 380.54 165.33 380.54 167.2 M 264.137 167.4 C 264.139 169.16 264.209 169.83 264.293 168.889 C 264.378 167.949 264.377 166.509 264.291 165.689 C 264.205 164.87 264.136 165.64 264.137 167.4 M 306.191 198.2 C 306.191 216.9 306.24 224.492 306.3 215.07 C 306.36 205.649 306.36 190.349 306.3 181.07 C 306.24 171.792 306.191 179.5 306.191 198.2 M 66.198 214.795 C 66.2 259.125 66.27 264.994 66.8 265.033 C 67.142 265.058 67.185 265.005 66.902 264.909 C 66.508 264.777 66.381 254.214 66.299 214.671 L 66.195 164.6 L 66.198 214.795 M 117.398 214.767 C 117.4 259.018 117.471 264.953 118 265.097 C 118.443 265.218 118.469 265.168 118.102 264.908 C 117.709 264.63 117.581 253.924 117.499 214.577 L 117.395 164.6 L 117.398 214.767 M 296.991 198.4 C 296.991 216.99 297.04 224.595 297.1 215.3 C 297.16 206.005 297.16 190.795 297.1 181.5 C 297.04 172.205 296.991 179.81 296.991 198.4 M 212.98 179 C 212.98 186.7 213.034 189.793 213.099 185.874 C 213.165 181.955 213.165 175.655 213.099 171.874 C 213.034 168.093 212.98 171.3 212.98 179 M 273.331 167.8 C 273.333 169.34 273.405 169.921 273.492 169.091 C 273.579 168.261 273.577 167.001 273.489 166.291 C 273.4 165.581 273.329 166.26 273.331 167.8 M 287.328 167.6 C 287.328 169.03 287.401 169.615 287.489 168.9 C 287.578 168.185 287.578 167.015 287.489 166.3 C 287.401 165.585 287.328 166.17 287.328 167.6 M 366.893 166.4 C 366.893 167.17 366.975 167.485 367.076 167.1 C 367.176 166.715 367.176 166.085 367.076 165.7 C 366.975 165.315 366.893 165.63 366.893 166.4 M 47.38 179.4 C 47.38 187.1 47.434 190.193 47.499 186.274 C 47.565 182.355 47.565 176.055 47.499 172.274 C 47.434 168.493 47.38 171.7 47.38 179.4 M 121.794 213.4 C 121.794 239.58 121.841 250.231 121.9 237.069 C 121.958 223.907 121.958 202.487 121.9 189.469 C 121.841 176.451 121.794 187.22 121.794 213.4 M 310.981 181.2 C 310.981 189.45 311.034 192.825 311.099 188.7 C 311.164 184.575 311.164 177.825 311.099 173.7 C 311.034 169.575 310.981 172.95 310.981 181.2 M 366.893 169.2 C 366.893 169.97 366.975 170.285 367.076 169.9 C 367.176 169.515 367.176 168.885 367.076 168.5 C 366.975 168.115 366.893 168.43 366.893 169.2 M 135.793 217.8 C 135.793 242 135.841 251.841 135.9 239.669 C 135.959 227.497 135.959 207.697 135.9 195.669 C 135.841 183.641 135.793 193.6 135.793 217.8 M 27.9 179.089 C 28.615 179.178 29.785 179.178 30.5 179.089 C 31.215 179.001 30.63 178.928 29.2 178.928 C 27.77 178.928 27.185 179.001 27.9 179.089 M 16.378 184.3 L 15 185.8 L 16.5 184.422 C 17.896 183.138 18.184 182.8 17.878 182.8 C 17.812 182.8 17.137 183.475 16.378 184.3 M 359.709 191.2 C 359.709 192.19 359.787 192.595 359.882 192.1 C 359.978 191.605 359.978 190.795 359.882 190.3 C 359.787 189.805 359.709 190.21 359.709 191.2 M 362.95 195.787 C 362.826 196.11 362.817 196.605 362.931 196.887 C 363.044 197.169 363.151 197.003 363.168 196.518 C 363.197 195.705 363.43 195.624 366.1 195.497 L 369 195.359 L 366.087 195.279 C 363.843 195.218 363.123 195.335 362.95 195.787 M 24.707 196.69 C 25.426 196.779 26.506 196.777 27.107 196.686 C 27.708 196.595 27.12 196.522 25.8 196.524 C 24.48 196.526 23.988 196.601 24.707 196.69 M 28.909 198 C 28.909 198.99 28.987 199.395 29.082 198.9 C 29.178 198.405 29.178 197.595 29.082 197.1 C 28.987 196.605 28.909 197.01 28.909 198 M 367.513 198.295 C 368.676 198.376 370.476 198.376 371.513 198.293 C 372.551 198.211 371.6 198.145 369.4 198.146 C 367.2 198.147 366.351 198.214 367.513 198.295 M 8.8 198.556 C 8.8 198.642 9.417 198.785 10.172 198.873 C 10.927 198.961 11.456 198.89 11.348 198.716 C 11.155 198.403 8.8 198.255 8.8 198.556 M 15.107 199.09 C 15.826 199.179 16.906 199.177 17.507 199.086 C 18.108 198.995 17.52 198.922 16.2 198.924 C 14.88 198.926 14.388 199.001 15.107 199.09 M 359.708 199.628 C 359.676 200.052 359.819 200.4 360.025 200.4 C 360.48 200.4 360.527 199.325 360.083 199.051 C 359.909 198.944 359.74 199.203 359.708 199.628 M 208 232.68 C 207.89 250.544 207.936 265.024 208.102 264.858 C 208.269 264.691 208.359 250.075 208.302 232.378 L 208.2 200.2 L 208 232.68 M 47.396 232.9 L 47.4 265 L 48.505 265.049 C 49.512 265.093 49.521 265.082 48.607 264.922 L 47.605 264.747 L 47.499 232.774 L 47.393 200.8 L 47.396 232.9 M 310.981 217.2 C 310.981 225.23 311.034 228.515 311.099 224.5 C 311.165 220.485 311.165 213.915 311.099 209.9 C 311.034 205.885 310.981 209.17 310.981 217.2 M 224.528 204.3 C 230.429 204.362 239.969 204.362 245.728 204.3 C 251.488 204.237 246.66 204.186 235 204.186 C 223.34 204.186 218.628 204.237 224.528 204.3 M 326.7 204.3 C 332.255 204.362 341.345 204.362 346.9 204.3 C 352.455 204.237 347.91 204.186 336.8 204.186 C 325.69 204.186 321.145 204.237 326.7 204.3 M 212.893 234.476 C 212.842 251.128 212.935 264.836 213.1 264.938 C 213.372 265.107 213.369 243.109 213.093 215 C 213.034 209.06 212.945 217.824 212.893 234.476 M 217.297 236.267 C 217.221 258.592 217.092 264.777 216.7 264.935 C 216.308 265.093 216.311 265.144 216.713 265.168 C 217.598 265.223 217.609 264.808 217.501 236 L 217.395 207.8 L 217.297 236.267 M 371.314 228.6 C 371.317 229.7 371.395 230.103 371.487 229.495 C 371.579 228.886 371.577 227.986 371.482 227.495 C 371.387 227.003 371.311 227.5 371.314 228.6 M 380.534 229.6 C 380.534 231.25 380.605 231.925 380.691 231.1 C 380.778 230.275 380.778 228.925 380.691 228.1 C 380.605 227.275 380.534 227.95 380.534 229.6 M 366.909 229.2 C 366.909 230.19 366.987 230.595 367.082 230.1 C 367.178 229.605 367.178 228.795 367.082 228.3 C 366.987 227.805 366.909 228.21 366.909 229.2 M 389.701 231.4 C 389.705 232.28 389.787 232.593 389.883 232.095 C 389.979 231.598 389.975 230.878 389.875 230.495 C 389.775 230.113 389.696 230.52 389.701 231.4 M 361.775 242.5 L 360.6 243.8 L 361.9 242.625 C 362.615 241.979 363.2 241.394 363.2 241.325 C 363.2 241.016 362.87 241.288 361.775 242.5 M 314.4 248.6 C 315.595 249.81 316.663 250.8 316.773 250.8 C 316.883 250.8 315.995 249.81 314.8 248.6 C 313.605 247.39 312.537 246.4 312.427 246.4 C 312.317 246.4 313.205 247.39 314.4 248.6 M 372.778 248.3 L 371.4 249.8 L 372.9 248.422 C 374.296 247.138 374.584 246.8 374.278 246.8 C 374.212 246.8 373.537 247.475 372.778 248.3 M 338.705 251.883 C 339.202 251.979 339.922 251.975 340.305 251.875 C 340.687 251.775 340.28 251.696 339.4 251.701 C 338.52 251.705 338.207 251.787 338.705 251.883 M 346.705 251.883 C 347.202 251.979 347.922 251.975 348.305 251.875 C 348.687 251.775 348.28 251.696 347.4 251.701 C 346.52 251.705 346.207 251.787 346.705 251.883 M 380.181 253.3 L 378.6 255 L 380.3 253.419 C 381.235 252.549 382 251.784 382 251.719 C 382 251.416 381.652 251.719 380.181 253.3 M 307 254 C 307.859 254.88 308.652 255.6 308.762 255.6 C 308.872 255.6 308.259 254.88 307.4 254 C 306.541 253.12 305.748 252.4 305.638 252.4 C 305.528 252.4 306.141 253.12 307 254 M 336.9 255.876 C 337.285 255.976 337.915 255.976 338.3 255.876 C 338.685 255.775 338.37 255.693 337.6 255.693 C 336.83 255.693 336.515 255.775 336.9 255.876 M 341.315 256.296 C 342.588 256.376 344.568 256.375 345.715 256.294 C 346.862 256.214 345.82 256.149 343.4 256.15 C 340.98 256.151 340.042 256.216 341.315 256.296 M 316 260.579 C 316 260.689 316.54 261.059 317.2 261.4 C 317.86 261.741 318.4 261.931 318.4 261.821 C 318.4 261.711 317.86 261.341 317.2 261 C 316.54 260.659 316 260.469 316 260.579 M 121.593 263.081 C 121.487 264.225 121.547 265.015 121.726 264.835 C 121.905 264.656 121.991 263.719 121.918 262.754 L 121.785 261 L 121.593 263.081 M 334.7 263.082 C 335.195 263.178 336.005 263.178 336.5 263.082 C 336.995 262.987 336.59 262.909 335.6 262.909 C 334.61 262.909 334.205 262.987 334.7 263.082 M 336.305 267.083 C 336.802 267.179 337.522 267.175 337.905 267.075 C 338.287 266.975 337.88 266.896 337 266.901 C 336.12 266.905 335.807 266.987 336.305 267.083 M 349.505 267.083 C 350.002 267.179 350.722 267.175 351.105 267.075 C 351.487 266.975 351.08 266.896 350.2 266.901 C 349.32 266.905 349.007 266.987 349.505 267.083 M 341.3 267.494 C 342.345 267.576 344.055 267.576 345.1 267.494 C 346.145 267.412 345.29 267.344 343.2 267.344 C 341.11 267.344 340.255 267.412 341.3 267.494" stroke-linecap="round"/>
</g>
<g transform="matrix(2.2727 0 0 2.2727 496.4873 501.0716)" id="path4">
<path style="stroke: none; stroke-width: 1; stroke-dasharray: none; stroke-linecap: butt; stroke-dashoffset: 0; stroke-linejoin: miter; stroke-miterlimit: 4; is-custom-font: none; font-file-url: none; fill: rgb(38,180,229); fill-rule: evenodd; opacity: 1;" transform=" translate(-198.4568, -200.4717)" d="M 40.986 185.51 C 41.015 185.901 41.588 187.026 42.261 188.01 C 45.79 193.179 45.761 200.861 42.192 206.011 C 41.029 207.69 38.627 210 38.044 210 C 37.836 210 37.607 210.143 37.533 210.319 C 37.46 210.494 36.5 211.057 35.4 211.569 C 30.312 213.937 22.996 212.758 18.602 208.862 C 17.943 208.278 17.53 207.956 17.683 208.148 C 17.836 208.339 17.696 208.761 17.371 209.086 C 16.442 210.016 18.469 211.577 23.908 214.119 C 25.161 214.705 33.716 214.651 33.915 214.056 C 33.998 213.805 34.479 213.6 34.983 213.6 C 36.016 213.6 38.957 212.058 40.287 210.82 C 40.771 210.369 41.354 210 41.583 210 C 41.812 210 42 209.854 42 209.675 C 42 209.497 42.328 208.999 42.728 208.569 C 48.342 202.544 48.495 191.85 43.056 185.7 C 42.098 184.617 40.912 184.508 40.986 185.51 M 389.97 186.53 C 390.668 187.228 390.461 187.747 389.722 187.149 C 389.35 186.847 389.799 187.561 390.721 188.734 C 391.702 189.983 392.67 191.809 393.053 193.134 C 393.414 194.381 393.793 195.625 393.897 195.9 C 394.041 196.281 393.036 196.4 389.666 196.4 C 387.236 196.4 385.15 196.558 385.03 196.751 C 384.66 197.35 387.136 197.61 390.645 197.34 L 394 197.082 L 393.995 198.841 C 393.976 206.041 388.346 212.576 380.964 213.969 C 378.301 214.471 377.442 214.446 374.009 213.76 C 372.452 213.449 369.431 211.891 368.174 210.75 C 367.115 209.788 365.925 209.76 366.082 210.7 C 366.791 214.923 378.923 217.792 384.437 215.041 C 385.144 214.689 385.965 214.4 386.261 214.4 C 386.558 214.4 386.8 214.22 386.8 214 C 386.8 213.78 387.038 213.6 387.328 213.6 C 390.367 213.6 396 204.221 396 199.162 C 396 197.685 396.148 197.2 396.6 197.2 C 397.067 197.2 397.022 197.022 396.4 196.4 C 395.96 195.96 395.6 195.242 395.6 194.804 C 395.6 192.25 392.282 186.624 390.584 186.299 C 389.839 186.157 389.663 186.223 389.97 186.53 M 3.1 197.097 C 1.395 197.172 0 197.385 0 197.57 C 0 197.92 6.721 198.613 7.038 198.296 C 7.29 198.043 6.772 196.782 6.457 196.88 C 6.316 196.925 4.805 197.022 3.1 197.097" stroke-linecap="round"/>
</g>
</svg>