<svg width="120" height="60" viewBox="0 0 120 60" fill="none" xmlns="http://www.w3.org/2000/svg">
<path d="M16.55 48.5C13.7833 48.5 11.4333 48.0167 9.5 47.05C7.56667 46.05 6.08333 44.5333 5.05 42.5C4.01667 40.4333 3.45 37.8333 3.35 34.7C3.31667 33.2 3.3 31.8 3.3 30.5C3.3 29.2 3.31667 27.8 3.35 26.3C3.45 23.2 4.05 20.6333 5.15 18.6C6.25 16.5333 7.76667 15 9.7 14C11.6667 13 13.95 12.5 16.55 12.5C19.15 12.5 21.4167 13 23.35 14C25.3167 15 26.85 16.5333 27.95 18.6C29.0833 20.6333 29.6833 23.2 29.75 26.3C29.8167 27.8 29.85 29.2 29.85 30.5C29.85 31.8 29.8167 33.2 29.75 34.7C29.6833 37.8333 29.1167 40.4333 28.05 42.5C27.0167 44.5333 25.5333 46.05 23.6 47.05C21.6667 48.0167 19.3167 48.5 16.55 48.5ZM16.55 45.5C19.4167 45.5 21.7667 44.6333 23.6 42.9C25.4667 41.1667 26.4667 38.35 26.6 34.45C26.6667 32.95 26.7 31.6333 26.7 30.5C26.7 29.3667 26.6667 28.05 26.6 26.55C26.5333 23.95 26.05 21.8333 25.15 20.2C24.2833 18.5667 23.1 17.3833 21.6 16.65C20.1333 15.8833 18.45 15.5 16.55 15.5C14.6833 15.5 13 15.8833 11.5 16.65C10.0333 17.3833 8.85 18.5667 7.95 20.2C7.08333 21.8333 6.6 23.95 6.5 26.55C6.46667 28.05 6.45 29.3667 6.45 30.5C6.45 31.6333 6.46667 32.95 6.5 34.45C6.63333 38.35 7.63333 41.1667 9.5 42.9C11.3667 44.6333 13.7167 45.5 16.55 45.5ZM38.2555 48C37.9221 48 37.6555 47.9 37.4555 47.7C37.2555 47.5 37.1555 47.2333 37.1555 46.9V23.1C37.1555 22.7667 37.2555 22.5 37.4555 22.3C37.6555 22.1 37.9221 22 38.2555 22H39.1055C39.4388 22 39.7055 22.1 39.9055 22.3C40.1055 22.5 40.2055 22.7667 40.2055 23.1V46.9C40.2055 47.2333 40.1055 47.5 39.9055 47.7C39.7055 47.9 39.4388 48 39.1055 48H38.2555ZM37.7055 16.65C37.3721 16.65 37.1055 16.55 36.9055 16.35C36.7055 16.15 36.6055 15.8833 36.6055 15.55V13.65C36.6055 13.3167 36.7055 13.05 36.9055 12.85C37.1055 12.6167 37.3721 12.5 37.7055 12.5H39.6055C39.9388 12.5 40.2055 12.6167 40.4055 12.85C40.6388 13.05 40.7555 13.3167 40.7555 13.65V15.55C40.7555 15.8833 40.6388 16.15 40.4055 16.35C40.2055 16.55 39.9388 16.65 39.6055 16.65H37.7055ZM49.4383 48C49.1049 48 48.8383 47.9 48.6383 47.7C48.4383 47.5 48.3383 47.2333 48.3383 46.9V13.6C48.3383 13.2667 48.4383 13 48.6383 12.8C48.8383 12.6 49.1049 12.5 49.4383 12.5H50.2883C50.6216 12.5 50.8883 12.6 51.0883 12.8C51.2883 13 51.3883 13.2667 51.3883 13.6V31.3L62.5383 22.85C63.0049 22.4833 63.3383 22.25 63.5383 22.15C63.7716 22.05 64.1383 22 64.6383 22H65.5883C65.8883 22 66.1216 22.1 66.2883 22.3C66.4883 22.4667 66.5883 22.7 66.5883 23C66.5883 23.1333 66.5383 23.3 66.4383 23.5C66.3716 23.6667 66.2049 23.8333 65.9383 24L53.2883 33.6L67.1883 46C67.6216 46.4 67.8383 46.7333 67.8383 47C67.8383 47.3 67.7383 47.55 67.5383 47.75C67.3716 47.9167 67.1383 48 66.8383 48H66.0383C65.5383 48 65.1716 47.9667 64.9383 47.9C64.7383 47.8 64.4049 47.55 63.9383 47.15L51.3883 36V46.9C51.3883 47.2333 51.2883 47.5 51.0883 47.7C50.8883 47.9 50.6216 48 50.2883 48H49.4383ZM81.284 48.5C78.884 48.5 76.8673 48 75.234 47C73.634 46 72.4007 44.6333 71.534 42.9C70.7007 41.1667 70.2507 39.2333 70.184 37.1C70.1507 36.6 70.134 35.9 70.134 35C70.134 34.1 70.1507 33.4 70.184 32.9C70.2507 30.7333 70.7007 28.8 71.534 27.1C72.4007 25.3667 73.634 24 75.234 23C76.8673 22 78.884 21.5 81.284 21.5C83.684 21.5 85.684 22 87.284 23C88.9173 24 90.1507 25.3667 90.984 27.1C91.8507 28.8 92.3173 30.7333 92.384 32.9C92.4173 33.4 92.434 34.1 92.434 35C92.434 35.9 92.4173 36.6 92.384 37.1C92.3173 39.2333 91.8507 41.1667 90.984 42.9C90.1507 44.6333 88.9173 46 87.284 47C85.684 48 83.684 48.5 81.284 48.5ZM81.284 45.6C83.6173 45.6 85.5173 44.85 86.984 43.35C88.4507 41.85 89.234 39.6833 89.334 36.85C89.3673 36.35 89.384 35.7333 89.384 35C89.384 34.2667 89.3673 33.65 89.334 33.15C89.234 30.2833 88.4507 28.1167 86.984 26.65C85.5173 25.15 83.6173 24.4 81.284 24.4C78.9507 24.4 77.0507 25.15 75.584 26.65C74.1173 28.1167 73.334 30.2833 73.234 33.15C73.2007 33.65 73.184 34.2667 73.184 35C73.184 35.7333 73.2007 36.35 73.234 36.85C73.334 39.6833 74.1173 41.85 75.584 43.35C77.0507 44.85 78.9507 45.6 81.284 45.6ZM107.515 48.5C105.782 48.5 104.282 48.2667 103.015 47.8C101.782 47.3333 100.765 46.7833 99.9648 46.15C99.1648 45.4833 98.5648 44.8333 98.1648 44.2C97.7982 43.5667 97.5982 43.0833 97.5648 42.75C97.5315 42.3833 97.6482 42.1167 97.9148 41.95C98.1815 41.75 98.4315 41.65 98.6648 41.65H99.4148C99.6148 41.65 99.7815 41.6833 99.9148 41.75C100.082 41.8167 100.282 42 100.515 42.3C100.948 42.8667 101.448 43.4167 102.015 43.95C102.582 44.45 103.298 44.85 104.165 45.15C105.065 45.45 106.182 45.6 107.515 45.6C109.515 45.6 111.165 45.2167 112.465 44.45C113.765 43.6833 114.415 42.55 114.415 41.05C114.415 40.1167 114.148 39.3667 113.615 38.8C113.115 38.2333 112.248 37.7333 111.015 37.3C109.782 36.8667 108.115 36.4167 106.015 35.95C103.915 35.45 102.298 34.85 101.165 34.15C100.065 33.45 99.3148 32.65 98.9148 31.75C98.5148 30.8167 98.3148 29.8167 98.3148 28.75C98.3148 27.5833 98.6482 26.45 99.3148 25.35C99.9815 24.2167 100.965 23.3 102.265 22.6C103.598 21.8667 105.265 21.5 107.265 21.5C108.898 21.5 110.282 21.7167 111.415 22.15C112.582 22.5833 113.532 23.1167 114.265 23.75C114.998 24.35 115.532 24.95 115.865 25.55C116.232 26.15 116.432 26.6333 116.465 27C116.498 27.3333 116.398 27.6 116.165 27.8C115.932 28 115.665 28.1 115.365 28.1H114.615C114.348 28.1 114.132 28.05 113.965 27.95C113.798 27.8167 113.648 27.65 113.515 27.45C113.182 26.9167 112.782 26.4167 112.315 25.95C111.848 25.4833 111.215 25.1167 110.415 24.85C109.648 24.55 108.598 24.4 107.265 24.4C105.265 24.4 103.782 24.8167 102.815 25.65C101.848 26.45 101.365 27.4833 101.365 28.75C101.365 29.4833 101.565 30.1333 101.965 30.7C102.365 31.2333 103.115 31.7333 104.215 32.2C105.315 32.6333 106.915 33.1 109.015 33.6C111.148 34.0667 112.832 34.65 114.065 35.35C115.298 36.0167 116.165 36.8167 116.665 37.75C117.198 38.6833 117.465 39.7833 117.465 41.05C117.465 42.3833 117.082 43.6167 116.315 44.75C115.582 45.8833 114.465 46.8 112.965 47.5C111.498 48.1667 109.682 48.5 107.515 48.5Z" fill="#160044"/>
<g style="mix-blend-mode:lighten">
<path d="M17.55 47.5C14.7833 47.5 12.4333 47.0167 10.5 46.05C8.56667 45.05 7.08333 43.5333 6.05 41.5C5.01667 39.4333 4.45 36.8333 4.35 33.7C4.31667 32.2 4.3 30.8 4.3 29.5C4.3 28.2 4.31667 26.8 4.35 25.3C4.45 22.2 5.05 19.6333 6.15 17.6C7.25 15.5333 8.76667 14 10.7 13C12.6667 12 14.95 11.5 17.55 11.5C20.15 11.5 22.4167 12 24.35 13C26.3167 14 27.85 15.5333 28.95 17.6C30.0833 19.6333 30.6833 22.2 30.75 25.3C30.8167 26.8 30.85 28.2 30.85 29.5C30.85 30.8 30.8167 32.2 30.75 33.7C30.6833 36.8333 30.1167 39.4333 29.05 41.5C28.0167 43.5333 26.5333 45.05 24.6 46.05C22.6667 47.0167 20.3167 47.5 17.55 47.5ZM17.55 44.5C20.4167 44.5 22.7667 43.6333 24.6 41.9C26.4667 40.1667 27.4667 37.35 27.6 33.45C27.6667 31.95 27.7 30.6333 27.7 29.5C27.7 28.3667 27.6667 27.05 27.6 25.55C27.5333 22.95 27.05 20.8333 26.15 19.2C25.2833 17.5667 24.1 16.3833 22.6 15.65C21.1333 14.8833 19.45 14.5 17.55 14.5C15.6833 14.5 14 14.8833 12.5 15.65C11.0333 16.3833 9.85 17.5667 8.95 19.2C8.08333 20.8333 7.6 22.95 7.5 25.55C7.46667 27.05 7.45 28.3667 7.45 29.5C7.45 30.6333 7.46667 31.95 7.5 33.45C7.63333 37.35 8.63333 40.1667 10.5 41.9C12.3667 43.6333 14.7167 44.5 17.55 44.5Z" fill="#00D7FF"/>
</g>
</svg>
