<svg width="120" height="59" viewBox="0 0 120 59" fill="none" xmlns="http://www.w3.org/2000/svg">
<path d="M16.55 47.5C13.7833 47.5 11.4333 47.0167 9.5 46.05C7.56667 45.05 6.08333 43.5333 5.05 41.5C4.01667 39.4333 3.45 36.8333 3.35 33.7C3.31667 32.2 3.3 30.8 3.3 29.5C3.3 28.2 3.31667 26.8 3.35 25.3C3.45 22.2 4.05 19.6333 5.15 17.6C6.25 15.5333 7.76667 14 9.7 13C11.6667 12 13.95 11.5 16.55 11.5C19.15 11.5 21.4167 12 23.35 13C25.3167 14 26.85 15.5333 27.95 17.6C29.0833 19.6333 29.6833 22.2 29.75 25.3C29.8167 26.8 29.85 28.2 29.85 29.5C29.85 30.8 29.8167 32.2 29.75 33.7C29.6833 36.8333 29.1167 39.4333 28.05 41.5C27.0167 43.5333 25.5333 45.05 23.6 46.05C21.6667 47.0167 19.3167 47.5 16.55 47.5ZM16.55 44.5C19.4167 44.5 21.7667 43.6333 23.6 41.9C25.4667 40.1667 26.4667 37.35 26.6 33.45C26.6667 31.95 26.7 30.6333 26.7 29.5C26.7 28.3667 26.6667 27.05 26.6 25.55C26.5333 22.95 26.05 20.8333 25.15 19.2C24.2833 17.5667 23.1 16.3833 21.6 15.65C20.1333 14.8833 18.45 14.5 16.55 14.5C14.6833 14.5 13 14.8833 11.5 15.65C10.0333 16.3833 8.85 17.5667 7.95 19.2C7.08333 20.8333 6.6 22.95 6.5 25.55C6.46667 27.05 6.45 28.3667 6.45 29.5C6.45 30.6333 6.46667 31.95 6.5 33.45C6.63333 37.35 7.63333 40.1667 9.5 41.9C11.3667 43.6333 13.7167 44.5 16.55 44.5Z" fill="#00D7FF"/>
<path d="M38.2555 47C37.9221 47 37.6555 46.9 37.4555 46.7C37.2555 46.5 37.1555 46.2333 37.1555 45.9V22.1C37.1555 21.7667 37.2555 21.5 37.4555 21.3C37.6555 21.1 37.9221 21 38.2555 21H39.1055C39.4388 21 39.7055 21.1 39.9055 21.3C40.1055 21.5 40.2055 21.7667 40.2055 22.1V45.9C40.2055 46.2333 40.1055 46.5 39.9055 46.7C39.7055 46.9 39.4388 47 39.1055 47H38.2555ZM37.7055 15.65C37.3721 15.65 37.1055 15.55 36.9055 15.35C36.7055 15.15 36.6055 14.8833 36.6055 14.55V12.65C36.6055 12.3167 36.7055 12.05 36.9055 11.85C37.1055 11.6167 37.3721 11.5 37.7055 11.5H39.6055C39.9388 11.5 40.2055 11.6167 40.4055 11.85C40.6388 12.05 40.7555 12.3167 40.7555 12.65V14.55C40.7555 14.8833 40.6388 15.15 40.4055 15.35C40.2055 15.55 39.9388 15.65 39.6055 15.65H37.7055ZM49.4383 47C49.1049 47 48.8383 46.9 48.6383 46.7C48.4383 46.5 48.3383 46.2333 48.3383 45.9V12.6C48.3383 12.2667 48.4383 12 48.6383 11.8C48.8383 11.6 49.1049 11.5 49.4383 11.5H50.2883C50.6216 11.5 50.8883 11.6 51.0883 11.8C51.2883 12 51.3883 12.2667 51.3883 12.6V30.3L62.5383 21.85C63.0049 21.4833 63.3383 21.25 63.5383 21.15C63.7716 21.05 64.1383 21 64.6383 21H65.5883C65.8883 21 66.1216 21.1 66.2883 21.3C66.4883 21.4667 66.5883 21.7 66.5883 22C66.5883 22.1333 66.5383 22.3 66.4383 22.5C66.3716 22.6667 66.2049 22.8333 65.9383 23L53.2883 32.6L67.1883 45C67.6216 45.4 67.8383 45.7333 67.8383 46C67.8383 46.3 67.7383 46.55 67.5383 46.75C67.3716 46.9167 67.1383 47 66.8383 47H66.0383C65.5383 47 65.1716 46.9667 64.9383 46.9C64.7383 46.8 64.4049 46.55 63.9383 46.15L51.3883 35V45.9C51.3883 46.2333 51.2883 46.5 51.0883 46.7C50.8883 46.9 50.6216 47 50.2883 47H49.4383ZM81.284 47.5C78.884 47.5 76.8673 47 75.234 46C73.634 45 72.4007 43.6333 71.534 41.9C70.7007 40.1667 70.2507 38.2333 70.184 36.1C70.1507 35.6 70.134 34.9 70.134 34C70.134 33.1 70.1507 32.4 70.184 31.9C70.2507 29.7333 70.7007 27.8 71.534 26.1C72.4007 24.3667 73.634 23 75.234 22C76.8673 21 78.884 20.5 81.284 20.5C83.684 20.5 85.684 21 87.284 22C88.9173 23 90.1507 24.3667 90.984 26.1C91.8507 27.8 92.3173 29.7333 92.384 31.9C92.4173 32.4 92.434 33.1 92.434 34C92.434 34.9 92.4173 35.6 92.384 36.1C92.3173 38.2333 91.8507 40.1667 90.984 41.9C90.1507 43.6333 88.9173 45 87.284 46C85.684 47 83.684 47.5 81.284 47.5ZM81.284 44.6C83.6173 44.6 85.5173 43.85 86.984 42.35C88.4507 40.85 89.234 38.6833 89.334 35.85C89.3673 35.35 89.384 34.7333 89.384 34C89.384 33.2667 89.3673 32.65 89.334 32.15C89.234 29.2833 88.4507 27.1167 86.984 25.65C85.5173 24.15 83.6173 23.4 81.284 23.4C78.9507 23.4 77.0507 24.15 75.584 25.65C74.1173 27.1167 73.334 29.2833 73.234 32.15C73.2007 32.65 73.184 33.2667 73.184 34C73.184 34.7333 73.2007 35.35 73.234 35.85C73.334 38.6833 74.1173 40.85 75.584 42.35C77.0507 43.85 78.9507 44.6 81.284 44.6ZM107.515 47.5C105.782 47.5 104.282 47.2667 103.015 46.8C101.782 46.3333 100.765 45.7833 99.9648 45.15C99.1648 44.4833 98.5648 43.8333 98.1648 43.2C97.7982 42.5667 97.5982 42.0833 97.5648 41.75C97.5315 41.3833 97.6482 41.1167 97.9148 40.95C98.1815 40.75 98.4315 40.65 98.6648 40.65H99.4148C99.6148 40.65 99.7815 40.6833 99.9148 40.75C100.082 40.8167 100.282 41 100.515 41.3C100.948 41.8667 101.448 42.4167 102.015 42.95C102.582 43.45 103.298 43.85 104.165 44.15C105.065 44.45 106.182 44.6 107.515 44.6C109.515 44.6 111.165 44.2167 112.465 43.45C113.765 42.6833 114.415 41.55 114.415 40.05C114.415 39.1167 114.148 38.3667 113.615 37.8C113.115 37.2333 112.248 36.7333 111.015 36.3C109.782 35.8667 108.115 35.4167 106.015 34.95C103.915 34.45 102.298 33.85 101.165 33.15C100.065 32.45 99.3148 31.65 98.9148 30.75C98.5148 29.8167 98.3148 28.8167 98.3148 27.75C98.3148 26.5833 98.6482 25.45 99.3148 24.35C99.9815 23.2167 100.965 22.3 102.265 21.6C103.598 20.8667 105.265 20.5 107.265 20.5C108.898 20.5 110.282 20.7167 111.415 21.15C112.582 21.5833 113.532 22.1167 114.265 22.75C114.998 23.35 115.532 23.95 115.865 24.55C116.232 25.15 116.432 25.6333 116.465 26C116.498 26.3333 116.398 26.6 116.165 26.8C115.932 27 115.665 27.1 115.365 27.1H114.615C114.348 27.1 114.132 27.05 113.965 26.95C113.798 26.8167 113.648 26.65 113.515 26.45C113.182 25.9167 112.782 25.4167 112.315 24.95C111.848 24.4833 111.215 24.1167 110.415 23.85C109.648 23.55 108.598 23.4 107.265 23.4C105.265 23.4 103.782 23.8167 102.815 24.65C101.848 25.45 101.365 26.4833 101.365 27.75C101.365 28.4833 101.565 29.1333 101.965 29.7C102.365 30.2333 103.115 30.7333 104.215 31.2C105.315 31.6333 106.915 32.1 109.015 32.6C111.148 33.0667 112.832 33.65 114.065 34.35C115.298 35.0167 116.165 35.8167 116.665 36.75C117.198 37.6833 117.465 38.7833 117.465 40.05C117.465 41.3833 117.082 42.6167 116.315 43.75C115.582 44.8833 114.465 45.8 112.965 46.5C111.498 47.1667 109.682 47.5 107.515 47.5Z" fill="white"/>
</svg>
