<svg width="242" height="60" viewBox="0 0 242 60" fill="none" xmlns="http://www.w3.org/2000/svg">
<g filter="url(#filter0_i_55_4)">
<path d="M87.28 17C88.9333 18.6267 89.76 21.0267 89.76 24.2C89.76 27.3733 88.9333 29.7867 87.28 31.44C85.6533 33.0667 83.3467 33.88 80.36 33.88H74.88V43H69.32V14.52H80.36C83.3467 14.52 85.6533 15.3467 87.28 17ZM84.2 24.2C84.2 21.0533 82.8267 19.48 80.08 19.48H74.88V28.88H80.08C81.4133 28.88 82.4267 28.52 83.12 27.8C83.84 27.08 84.2 25.88 84.2 24.2ZM118.797 43H110.317C107.117 43 104.797 42.3867 103.357 41.16C101.944 39.9067 101.237 37.88 101.237 35.08V14.52H106.797V35.08C106.797 36.2 107.051 36.9733 107.557 37.4C108.064 37.8267 108.984 38.04 110.317 38.04H118.797V43ZM151.629 43H145.829L144.229 38.08H134.669L133.109 43H127.309L136.429 16.92C136.829 16.0133 137.269 15.3867 137.749 15.04C138.256 14.6933 138.869 14.52 139.589 14.52C140.309 14.52 140.883 14.68 141.309 15C141.763 15.32 142.163 15.96 142.509 16.92L151.629 43ZM142.949 33.4L139.589 22.12L136.069 33.4H142.949ZM180.857 19.48H173.217V43H167.657V19.48H160.057V14.52H180.857V19.48ZM212.909 14.52V33.24C212.909 36.3333 211.855 38.7733 209.749 40.56C207.669 42.3467 205.095 43.24 202.029 43.24C198.962 43.24 196.375 42.3467 194.269 40.56C192.189 38.7733 191.149 36.3333 191.149 33.24V14.52H196.709V33.04C196.709 34.8 197.189 36.12 198.149 37C199.135 37.8533 200.429 38.28 202.029 38.28C203.629 38.28 204.922 37.8533 205.909 37C206.895 36.12 207.389 34.8 207.389 33.04V14.52H212.909ZM229.788 47.36V43.04C227.841 42.6667 226.228 41.7333 224.948 40.24C223.694 38.7467 223.068 36.6533 223.068 33.96L228.108 33.72C228.108 35.32 228.388 36.48 228.948 37.2C229.534 37.92 230.428 38.28 231.628 38.28C232.828 38.28 233.828 37.96 234.628 37.32C235.454 36.68 235.868 35.8267 235.868 34.76C235.868 32.84 234.961 31.7067 233.148 31.36L229.428 30.88C227.561 30.5333 226.081 29.7067 224.988 28.4C223.921 27.0933 223.388 25.3067 223.388 23.04C223.388 20.7733 223.961 18.8933 225.108 17.4C226.254 15.9067 227.814 14.9467 229.788 14.52V11.56H233.828V14.44C235.988 14.7867 237.694 15.68 238.948 17.12C240.228 18.5333 240.868 20.28 240.868 22.36L235.868 22.6C235.654 21.2667 235.228 20.36 234.588 19.88C233.948 19.3733 233.121 19.12 232.108 19.12C231.121 19.12 230.308 19.48 229.668 20.2C229.054 20.92 228.748 21.7467 228.748 22.68C228.748 23.5867 229.014 24.32 229.548 24.88C230.081 25.4133 230.734 25.7467 231.508 25.88L234.108 26.36C236.188 26.7067 237.921 27.5733 239.308 28.96C240.694 30.32 241.388 32.1467 241.388 34.44C241.388 36.7333 240.628 38.6267 239.108 40.12C237.614 41.6133 235.854 42.5733 233.828 43V47.36H229.788Z" fill="white"/>
</g>
<rect width="60" height="60" rx="12" fill="url(#paint0_linear_55_4)"/>
<path d="M41.6 50C41.3067 50 41.08 49.9067 40.92 49.72C40.76 49.56 40.68 49.3467 40.68 49.08V46.28C38.7333 46.12 37.0933 45.68 35.76 44.96C34.4267 44.2133 33.4133 43.32 32.72 42.28C32.0267 41.24 31.6533 40.1333 31.6 38.96C31.6 38.7467 31.68 38.56 31.84 38.4C32.0267 38.2133 32.24 38.12 32.48 38.12H34.52C34.84 38.12 35.08 38.2 35.24 38.36C35.4 38.52 35.5067 38.7067 35.56 38.92C35.72 39.56 36.0533 40.2 36.56 40.84C37.0667 41.4533 37.7867 41.9733 38.72 42.4C39.68 42.8 40.9067 43 42.4 43C44.6933 43 46.3733 42.6 47.44 41.8C48.5333 40.9733 49.08 39.88 49.08 38.52C49.08 37.5867 48.7867 36.84 48.2 36.28C47.64 35.6933 46.7733 35.1733 45.6 34.72C44.4267 34.2667 42.9067 33.7733 41.04 33.24C39.0933 32.68 37.48 32.0667 36.2 31.4C34.92 30.7333 33.96 29.9067 33.32 28.92C32.7067 27.9333 32.4 26.68 32.4 25.16C32.4 23.2133 33.12 21.5467 34.56 20.16C36 18.7467 38.04 17.92 40.68 17.68V14.92C40.68 14.6533 40.76 14.44 40.92 14.28C41.08 14.0933 41.3067 14 41.6 14H43.12C43.3867 14 43.6 14.0933 43.76 14.28C43.9467 14.44 44.04 14.6533 44.04 14.92V17.72C45.8267 17.9333 47.32 18.4267 48.52 19.2C49.72 19.9733 50.6267 20.8667 51.24 21.88C51.8533 22.8933 52.1733 23.88 52.2 24.84C52.2 25.0267 52.1333 25.2133 52 25.4C51.8667 25.56 51.6533 25.64 51.36 25.64H49.24C49.0533 25.64 48.8533 25.5867 48.64 25.48C48.4533 25.3733 48.3067 25.1733 48.2 24.88C48.04 23.7867 47.4267 22.8667 46.36 22.12C45.2933 21.3733 43.9067 21 42.2 21C40.4667 21 39.0533 21.3333 37.96 22C36.8933 22.6667 36.36 23.7067 36.36 25.12C36.36 26.0267 36.6133 26.7867 37.12 27.4C37.6267 27.9867 38.4267 28.5067 39.52 28.96C40.6133 29.4133 42.04 29.8933 43.8 30.4C45.9333 30.9867 47.68 31.6133 49.04 32.28C50.4 32.92 51.4 33.7333 52.04 34.72C52.7067 35.68 53.04 36.92 53.04 38.44C53.04 39.96 52.6667 41.28 51.92 42.4C51.2 43.52 50.16 44.4133 48.8 45.08C47.4667 45.7467 45.88 46.16 44.04 46.32V49.08C44.04 49.3467 43.9467 49.56 43.76 49.72C43.6 49.9067 43.3867 50 43.12 50H41.6Z" fill="white"/>
<path d="M13.9277 37.7979C13.7676 39.3994 12.8867 40.2669 11.2852 40.4004C10.5378 40.4004 9.88379 40.1602 9.32324 39.6797C8.78939 39.1725 8.52246 38.5452 8.52246 37.7979V18.8994C8.54915 18.152 8.82943 17.5381 9.36328 17.0576C9.89714 16.5505 10.5378 16.2969 11.2852 16.2969H28.1016C30.4505 16.377 32.2256 16.8975 33.4268 17.8584C34.6279 18.7926 35.4954 19.8604 36.0293 21.0615C36.5632 22.2627 36.8301 23.4772 36.8301 24.7051C36.8301 25.9863 36.5632 27.2275 36.0293 28.4287C35.5221 29.6299 34.6546 30.7109 33.4268 31.6719C32.2256 32.6061 30.6908 33.0599 28.8223 33.0332H18.7324C17.985 33.0332 17.3577 32.7663 16.8506 32.2324C16.3167 31.7253 16.0498 31.098 16.0498 30.3506C16.0498 29.6032 16.3034 28.9759 16.8105 28.4688C17.3444 27.9349 17.985 27.668 18.7324 27.668H29.0625C29.5697 27.668 29.9834 27.5078 30.3037 27.1875C30.6507 26.8405 30.9043 26.4535 31.0645 26.0264C31.2246 25.5726 31.3047 25.1188 31.3047 24.665C31.3047 24.238 31.2246 23.8109 31.0645 23.3838C30.9043 22.93 30.6507 22.543 30.3037 22.2227C29.9834 21.8757 29.5697 21.6888 29.0625 21.6621H14.9688C14.2747 21.6888 13.9277 22.0358 13.9277 22.7031V37.7979Z" fill="white"/>
<defs>
<filter id="filter0_i_55_4" x="69.32" y="11.56" width="172.067" height="36.8" filterUnits="userSpaceOnUse" color-interpolation-filters="sRGB">
<feFlood flood-opacity="0" result="BackgroundImageFix"/>
<feBlend mode="normal" in="SourceGraphic" in2="BackgroundImageFix" result="shape"/>
<feColorMatrix in="SourceAlpha" type="matrix" values="0 0 0 0 0 0 0 0 0 0 0 0 0 0 0 0 0 0 127 0" result="hardAlpha"/>
<feOffset dy="1"/>
<feGaussianBlur stdDeviation="2"/>
<feComposite in2="hardAlpha" operator="arithmetic" k2="-1" k3="1"/>
<feColorMatrix type="matrix" values="0 0 0 0 0 0 0 0 0 0 0 0 0 0 0 0 0 0 0.25 0"/>
<feBlend mode="normal" in2="shape" result="effect1_innerShadow_55_4"/>
</filter>
<linearGradient id="paint0_linear_55_4" x1="56.4" y1="1.8" x2="30" y2="60" gradientUnits="userSpaceOnUse">
<stop offset="0.555" stop-color="#00D7FF"/>
<stop offset="1" stop-color="#008199"/>
</linearGradient>
</defs>
</svg>
