<svg width="283" height="69" viewBox="0 0 283 69" fill="none" xmlns="http://www.w3.org/2000/svg">
<path d="M9.35 57C8.11667 57 6.98333 56.7 5.95 56.1C4.95 55.5 4.15 54.6833 3.55 53.65C2.95 52.6167 2.65 51.4833 2.65 50.25V47.85H8.65V50.05C8.65 50.3167 8.73333 50.5333 8.9 50.7C9.06667 50.8667 9.28333 50.95 9.55 50.95H31.65C31.9167 50.95 32.1333 50.8667 32.3 50.7C32.5 50.5333 32.6 50.3167 32.6 50.05V42.9C32.6 42.6667 32.5 42.4667 32.3 42.3C32.1333 42.1 31.9167 42 31.65 42H9.35C8.11667 42 6.98333 41.7 5.95 41.1C4.95 40.5 4.15 39.7 3.55 38.7C2.95 37.6667 2.65 36.5333 2.65 35.3V27.75C2.65 26.5167 2.95 25.3833 3.55 24.35C4.15 23.3167 4.95 22.5 5.95 21.9C6.98333 21.3 8.11667 21 9.35 21H31.9C33.1333 21 34.25 21.3 35.25 21.9C36.2833 22.5 37.1 23.3167 37.7 24.35C38.3333 25.3833 38.65 26.5167 38.65 27.75V30.15H32.6V27.95C32.6 27.6833 32.5 27.4667 32.3 27.3C32.1333 27.1333 31.9167 27.05 31.65 27.05H9.55C9.28333 27.05 9.06667 27.1333 8.9 27.3C8.73333 27.4667 8.65 27.6833 8.65 27.95V35.1C8.65 35.3333 8.73333 35.55 8.9 35.75C9.06667 35.9167 9.28333 36 9.55 36H31.9C33.1333 36 34.25 36.3 35.25 36.9C36.2833 37.5 37.1 38.3167 37.7 39.35C38.3333 40.35 38.65 41.4667 38.65 42.7V50.25C38.65 51.4833 38.3333 52.6167 37.7 53.65C37.1 54.6833 36.2833 55.5 35.25 56.1C34.25 56.7 33.1333 57 31.9 57H9.35ZM48.3098 67.9V61.9H65.9598C66.1931 61.9 66.3931 61.8 66.5598 61.6C66.7598 61.4333 66.8598 61.2333 66.8598 61V57H50.0598C48.8598 57 47.7431 56.7 46.7098 56.1C45.7098 55.4667 44.8931 54.65 44.2598 53.65C43.6598 52.65 43.3598 51.5333 43.3598 50.3V28.1H49.3098V50.1C49.3098 50.3667 49.3931 50.6 49.5598 50.8C49.7598 50.9667 49.9931 51.05 50.2598 51.05H65.9598C66.1931 51.05 66.3931 50.9667 66.5598 50.8C66.7598 50.6 66.8598 50.3667 66.8598 50.1V28.1H72.8098V61.2C72.8098 62.4667 72.5098 63.6 71.9098 64.6C71.3431 65.6 70.5431 66.4 69.5098 67C68.5098 67.6 67.3931 67.9 66.1598 67.9H48.3098ZM77.1629 57V28H99.9629C101.163 28 102.263 28.3167 103.263 28.95C104.296 29.55 105.113 30.35 105.713 31.35C106.313 32.35 106.613 33.4667 106.613 34.7V57H100.663V34.9C100.663 34.6333 100.563 34.4167 100.363 34.25C100.196 34.05 99.9962 33.95 99.7629 33.95H84.0629C83.8296 33.95 83.6129 34.05 83.4129 34.25C83.2129 34.4167 83.1129 34.6333 83.1129 34.9V57H77.1629ZM117.404 57C116.171 57 115.054 56.7 114.054 56.1C113.054 55.4667 112.238 54.65 111.604 53.65C111.004 52.65 110.704 51.5333 110.704 50.3V34.7C110.704 33.4667 111.004 32.35 111.604 31.35C112.238 30.35 113.054 29.55 114.054 28.95C115.054 28.3167 116.171 28 117.404 28H140.104V33.95H117.604C117.338 33.95 117.104 34.05 116.904 34.25C116.738 34.4167 116.654 34.6333 116.654 34.9V50.1C116.654 50.3667 116.738 50.6 116.904 50.8C117.104 50.9667 117.338 51.05 117.604 51.05H140.154V57H117.404ZM175.305 57V34.7C175.305 33.4667 175.605 32.35 176.205 31.35C176.838 30.35 177.655 29.55 178.655 28.95C179.688 28.3167 180.805 28 182.005 28H198.155V33.95H182.205C181.938 33.95 181.705 34.05 181.505 34.25C181.338 34.4167 181.255 34.6333 181.255 34.9V57H175.305ZM201.77 57V28H207.72V57H201.77ZM201.77 24.5V18.5H207.72V24.5H201.77ZM227.254 57L211.304 28H218.204L230.154 49.95L242.104 28H249.004L232.954 57H227.254ZM257.492 57C256.259 57 255.142 56.7 254.142 56.1C253.142 55.4667 252.326 54.65 251.692 53.65C251.092 52.65 250.792 51.5333 250.792 50.3V34.7C250.792 33.4667 251.092 32.35 251.692 31.35C252.326 30.35 253.142 29.55 254.142 28.95C255.142 28.3167 256.259 28 257.492 28H273.542C274.809 28 275.942 28.3167 276.942 28.95C277.942 29.55 278.742 30.35 279.342 31.35C279.942 32.35 280.242 33.4667 280.242 34.7V45.5H256.742V50.1C256.742 50.3667 256.826 50.6 256.992 50.8C257.192 50.9667 257.426 51.05 257.692 51.05H280.242V57H257.492ZM256.742 40.05H274.292V34.9C274.292 34.6333 274.192 34.4167 273.992 34.25C273.826 34.05 273.609 33.95 273.342 33.95H257.692C257.426 33.95 257.192 34.05 256.992 34.25C256.826 34.4167 256.742 34.6333 256.742 34.9V40.05Z" fill="url(#paint0_linear_58_30)"/>
<path d="M163.75 51C164.983 51 166.1 50.7 167.1 50.1C168.1 49.4667 168.917 48.65 169.55 47.65C170.15 46.65 170.45 45.5333 170.45 44.3V28.7C170.45 27.4667 170.15 26.35 169.55 25.35C168.917 24.35 168.1 23.55 167.1 22.95C166.1 22.3167 164.983 22 163.75 22H141.05V27.95H163.55C163.817 27.95 164.05 28.05 164.25 28.25C164.417 28.4167 164.5 28.6333 164.5 28.9V44.1C164.5 44.3667 164.417 44.6 164.25 44.8C164.05 44.9667 163.817 45.05 163.55 45.05H141V51H163.75Z" fill="white"/>
<defs>
<linearGradient id="paint0_linear_58_30" x1="121.668" y1="6" x2="161.332" y2="69" gradientUnits="userSpaceOnUse">
<stop stop-color="#00D7FF"/>
<stop offset="1" stop-color="#0073C6"/>
</linearGradient>
</defs>
</svg>
