<svg xml:space="preserve" viewBox="0 0 50 30" y="0" x="0" xmlns="http://www.w3.org/2000/svg" id="Layer_1" version="1.1">
  <path d="M14.1 10.9c0 .6.1 1.1.2 1.5.1.4.3.8.5 1.2.1.1.1.3.1.4 0 .2-.1.3-.3.5l-1 .7c-.2.1-.3.1-.4.1-.2 0-.3-.1-.5-.2-.2-.2-.4-.5-.6-.8-.2-.3-.3-.6-.5-1-1.3 1.5-2.9 2.3-4.9 2.3-1.4 0-2.5-.4-3.3-1.2-.8-.8-1.2-1.9-1.2-3.2 0-1.4.5-2.6 1.5-3.4 1-.9 2.4-1.3 4.1-1.3.6 0 1.1 0 1.8.1.6.1 1.2.2 1.9.4V5.7c0-1.3-.3-2.1-.8-2.7-.7-.4-1.6-.7-2.8-.7-.6 0-1.2.1-1.8.2l-1.8.6c-.3.1-.5.2-.6.2h-.3c-.2 0-.3-.2-.3-.5V2c0-.3 0-.5.1-.6.1-.1.2-.2.5-.3C4.3.8 5 .5 5.8.3 6.6.1 7.4 0 8.4 0c2 0 3.4.5 4.3 1.4.9.9 1.4 2.3 1.4 4.1v5.4zm-6.8 2.5c.5 0 1.1-.1 1.7-.3.6-.2 1.1-.6 1.6-1.1.3-.3.5-.7.6-1.1.1-.4.2-.9.2-1.4v-.7l-1.5-.3c-.6 0-1.1-.1-1.6-.1-1.1 0-1.9.2-2.5.7-.5.5-.8 1.1-.8 1.9 0 .8.2 1.4.6 1.8.4.4 1 .6 1.7.6zm13.4 1.8c-.3 0-.5-.1-.6-.2-.1-.1-.3-.3-.3-.7l-4-12.8c-.1-.3-.1-.6-.1-.7 0-.3.1-.4.4-.4h1.6c.3 0 .5.1.7.2.1.1.2.3.3.7l2.8 11 2.6-11c.1-.3.2-.5.3-.7.1-.1.4-.2.7-.2h1.3c.3 0 .5.1.7.2.1.1.2.3.3.7L30 12.4l2.9-11.1c.1-.3.2-.5.3-.7.1-.1.3-.2.7-.2h1.5c.3 0 .4.1.4.4v.3c0 .1-.1.2-.1.4l-4 12.9c-.1.3-.2.5-.3.7-.1.1-.3.2-.6.2h-1.4c-.3 0-.5-.1-.7-.2-.1-.1-.2-.3-.3-.7L25.7 3.6l-2.6 10.7c-.1.3-.2.6-.3.7-.1.1-.4.2-.7.2h-1.4zm21.4.4c-.9 0-1.7-.1-2.6-.3-.8-.2-1.5-.4-1.9-.7-.3-.2-.4-.3-.5-.5-.1-.1-.1-.2-.1-.4v-.8c0-.3.1-.5.4-.5.1 0 .2 0 .3.1.1 0 .2.1.4.2.6.3 1.2.4 1.8.6.7.1 1.3.2 2 .2 1 0 1.9-.2 2.4-.6.6-.4.9-.9.9-1.6 0-.5-.2-.9-.5-1.2-.3-.3-.9-.6-1.7-.9l-2.4-.8c-1.2-.4-2.1-1-2.7-1.7-.6-.7-.8-1.5-.8-2.4 0-.7.2-1.3.5-1.8s.7-1 1.2-1.4c.5-.4 1.1-.7 1.7-.9.7-.1 1.4-.2 2.1-.2.4 0 .7 0 1.1.1.4 0 .7.1 1.1.2.3.1.7.2.9.3.3.1.5.2.7.3.2.1.4.3.5.4.1.1.1.3.1.6v.8c0 .3-.1.5-.4.5-.1 0-.3-.1-.6-.2-1-.4-2-.6-3.2-.6-1 0-1.7.2-2.2.5-.5.3-.8.8-.8 1.5 0 .5.2.9.5 1.2.3.3.9.6 1.8.9l2.5.5c1.2.4 2.1.9 2.6 1.6.5.7.8 1.5.8 2.3 0 .7-.1 1.4-.4 1.9-.3.6-.7 1.1-1.2 1.5-.5.4-1.1.7-1.8.9-.9.3-1.7.4-2.5.4z" fill="#fff"></path>
  <path d="M45.2 23.8C39.7 27.9 31.8 30 25 30 15.4 30 6.8 26.5.3 20.6c-.5-.5-.1-1.1.6-.7 7 4.1 15.7 6.6 24.7 6.6 6.1 0 12.7-1.3 18.9-3.9.8-.5 1.6.5.7 1.2z" fill="#fff"></path>
  <path d="M47.5 21.2c-.7-.9-4.6-.4-6.4-.2-.5.1-.6-.4-.1-.7 3.1-2.2 8.3-1.6 8.9-.8.6.7-.2 5.9-3.1 8.3-.5.4-.9.2-.7-.3.6-1.7 2.1-5.4 1.4-6.3z" fill="#fff"></path>
</svg>