<svg width="160" height="180" viewBox="0 0 148 90" fill="none" xmlns="http://www.w3.org/2000/svg">
<rect x="33" y="67" width="17" height="22" rx="8.5" fill="#160044"/>
<path d="M72.51 4.8L80.98 4.68999C86.3333 4.98333 90.8433 5.64333 94.51 6.67C98.1767 7.69666 101.513 9.71333 104.52 12.72C109.507 17.7067 112 24.9667 112 34.5C112 45.72 110.533 53.42 107.6 57.6C104.593 61.78 99.2033 63.87 91.43 63.87L33.68 63.87L33.68 33.4C33.68 24.6 36.1733 17.7067 41.16 12.72C45.1933 8.68666 50.1067 6.30333 55.9 5.57C60.0067 5.05667 65.5433 4.8 72.51 4.8ZM93.52 23.39C91.8333 21.9967 89.5233 21.1167 86.59 20.75C83.5833 20.31 78.9267 20.09 72.62 20.09C66.3133 20.09 61.7667 20.31 58.98 20.75C56.12 21.1167 53.8467 21.9967 52.16 23.39C48.9333 26.03 47.32 29.8433 47.32 34.83V48.58L90.66 48.58C93.5933 48.58 95.61 47.59 96.71 45.61C97.81 43.63 98.36 40.11 98.36 35.05C98.36 29.9167 96.7467 26.03 93.52 23.39Z" fill="#160044"/>
<g filter="url(#filter0_i_26_14)">
<path d="M61.352 84H57.96C56.68 84 55.752 83.7547 55.176 83.264C54.6107 82.7627 54.328 81.952 54.328 80.832V72.608H56.552V80.832C56.552 81.28 56.6533 81.5893 56.856 81.76C57.0587 81.9307 57.4267 82.016 57.96 82.016H61.352V84ZM74.4849 84H72.1649L71.5249 82.032H67.7009L67.0769 84H64.7569L68.4049 73.568C68.5649 73.2053 68.7409 72.9547 68.9329 72.816C69.1355 72.6773 69.3809 72.608 69.6689 72.608C69.9569 72.608 70.1862 72.672 70.3569 72.8C70.5382 72.928 70.6982 73.184 70.8369 73.568L74.4849 84ZM71.0129 80.16L69.6689 75.648L68.2609 80.16H71.0129ZM86.176 74.592H83.12V84H80.896V74.592H77.856V72.608H86.176V74.592ZM98.9966 72.608V80.096C98.9966 81.3333 98.5753 82.3093 97.7326 83.024C96.9006 83.7387 95.8713 84.096 94.6446 84.096C93.418 84.096 92.3833 83.7387 91.5406 83.024C90.7086 82.3093 90.2926 81.3333 90.2926 80.096V72.608H92.5166V80.016C92.5166 80.72 92.7086 81.248 93.0926 81.6C93.4873 81.9413 94.0046 82.112 94.6446 82.112C95.2846 82.112 95.802 81.9413 96.1966 81.6C96.5913 81.248 96.7886 80.72 96.7886 80.016V72.608H98.9966ZM105.748 85.744V84.016C104.969 83.8667 104.324 83.4933 103.812 82.896C103.311 82.2987 103.06 81.4613 103.06 80.384L105.076 80.288C105.076 80.928 105.188 81.392 105.412 81.68C105.647 81.968 106.004 82.112 106.484 82.112C106.964 82.112 107.364 81.984 107.684 81.728C108.015 81.472 108.18 81.1307 108.18 80.704C108.18 79.936 107.817 79.4827 107.092 79.344L105.604 79.152C104.857 79.0133 104.265 78.6827 103.828 78.16C103.401 77.6373 103.188 76.9227 103.188 76.016C103.188 75.1093 103.417 74.3573 103.876 73.76C104.335 73.1627 104.959 72.7787 105.748 72.608V71.424H107.364V72.576C108.228 72.7147 108.911 73.072 109.412 73.648C109.924 74.2133 110.18 74.912 110.18 75.744L108.18 75.84C108.095 75.3067 107.924 74.944 107.668 74.752C107.412 74.5493 107.081 74.448 106.676 74.448C106.281 74.448 105.956 74.592 105.7 74.88C105.455 75.168 105.332 75.4987 105.332 75.872C105.332 76.2347 105.439 76.528 105.652 76.752C105.865 76.9653 106.127 77.0987 106.436 77.152L107.476 77.344C108.308 77.4827 109.001 77.8293 109.556 78.384C110.111 78.928 110.388 79.6587 110.388 80.576C110.388 81.4933 110.084 82.2507 109.476 82.848C108.879 83.4453 108.175 83.8293 107.364 84V85.744H105.748Z" fill="#00D7FF"/>
</g>
<path d="M45.512 73.6C46.1733 74.2507 46.504 75.2107 46.504 76.48C46.504 77.7493 46.1733 78.7147 45.512 79.376C44.8613 80.0267 43.9387 80.352 42.744 80.352H40.552V84H38.328V72.608H42.744C43.9387 72.608 44.8613 72.9387 45.512 73.6ZM44.28 76.48C44.28 75.2213 43.7307 74.592 42.632 74.592H40.552V78.352H42.632C43.1653 78.352 43.5707 78.208 43.848 77.92C44.136 77.632 44.28 77.152 44.28 76.48Z" fill="#00D7FF"/>
<defs>
<filter id="filter0_i_26_14" x="54.328" y="71.424" width="56.0601" height="15.32" filterUnits="userSpaceOnUse" color-interpolation-filters="sRGB">
<feFlood flood-opacity="0" result="BackgroundImageFix"/>
<feBlend mode="normal" in="SourceGraphic" in2="BackgroundImageFix" result="shape"/>
<feColorMatrix in="SourceAlpha" type="matrix" values="0 0 0 0 0 0 0 0 0 0 0 0 0 0 0 0 0 0 127 0" result="hardAlpha"/>
<feOffset dy="1"/>
<feGaussianBlur stdDeviation="2"/>
<feComposite in2="hardAlpha" operator="arithmetic" k2="-1" k3="1"/>
<feColorMatrix type="matrix" values="0 0 0 0 0 0 0 0 0 0 0 0 0 0 0 0 0 0 0.25 0"/>
<feBlend mode="normal" in2="shape" result="effect1_innerShadow_26_14"/>
</filter>
</defs>
<text x="14" y="105" font-family="Arial" font-size="15" fill="#160044" font-weight="bold">Powered by nife</text>
</svg>
